<?xml version="1.0" encoding="UTF-8" standalone="no"?>
<!-- Created with Inkscape (http://www.inkscape.org/) -->

<svg
   xmlns:dc="http://purl.org/dc/elements/1.1/"
   xmlns:cc="http://creativecommons.org/ns#"
   xmlns:rdf="http://www.w3.org/1999/02/22-rdf-syntax-ns#"
   xmlns:svg="http://www.w3.org/2000/svg"
   xmlns="http://www.w3.org/2000/svg"
   xmlns:sodipodi="http://sodipodi.sourceforge.net/DTD/sodipodi-0.dtd"
   xmlns:inkscape="http://www.inkscape.org/namespaces/inkscape"
   width="200"
   height="200"
   viewBox="0 0 52.916668 52.916665"
   version="1.1"
   id="svg8"
   inkscape:version="0.92.5 (0.92.5+68)"
   sodipodi:docname="beer-ico.svg"
   inkscape:export-filename="/home/angel/Documentos/Desarrollo/Appuelo/IMGS/ICON/bus.png"
   inkscape:export-xdpi="96"
   inkscape:export-ydpi="96">
  <defs
     id="defs2">
    <inkscape:path-effect
       effect="spiro"
       id="path-effect2321"
       is_visible="true" />
    <inkscape:path-effect
       effect="spiro"
       id="path-effect2313"
       is_visible="true" />
    <inkscape:path-effect
       effect="spiro"
       id="path-effect2309"
       is_visible="true" />
    <inkscape:path-effect
       effect="spiro"
       id="path-effect2305"
       is_visible="true" />
    <inkscape:path-effect
       effect="spiro"
       id="path-effect2297"
       is_visible="true" />
    <inkscape:path-effect
       effect="spiro"
       id="path-effect1988"
       is_visible="true" />
    <inkscape:path-effect
       effect="spiro"
       id="path-effect1974"
       is_visible="true" />
    <inkscape:path-effect
       effect="spiro"
       id="path-effect1970"
       is_visible="true" />
    <inkscape:path-effect
       effect="spiro"
       id="path-effect1936"
       is_visible="true" />
    <inkscape:path-effect
       effect="spiro"
       id="path-effect965"
       is_visible="true" />
    <inkscape:path-effect
       effect="spiro"
       id="path-effect957"
       is_visible="true" />
    <inkscape:path-effect
       effect="spiro"
       id="path-effect953"
       is_visible="true" />
    <inkscape:path-effect
       effect="spiro"
       id="path-effect1037"
       is_visible="true" />
    <inkscape:path-effect
       effect="bspline"
       id="path-effect1033"
       is_visible="true"
       weight="33.333333"
       steps="2"
       helper_size="0"
       apply_no_weight="true"
       apply_with_weight="true"
       only_selected="false" />
    <inkscape:path-effect
       effect="bspline"
       id="path-effect1029"
       is_visible="true"
       weight="33.333333"
       steps="2"
       helper_size="0"
       apply_no_weight="true"
       apply_with_weight="true"
       only_selected="false" />
    <inkscape:path-effect
       effect="spiro"
       id="path-effect1025"
       is_visible="true" />
    <inkscape:perspective
       sodipodi:type="inkscape:persp3d"
       inkscape:vp_x="-17.541171 : 8.4213807 : 1"
       inkscape:vp_y="0 : 2558.0658 : 0"
       inkscape:vp_z="71.765332 : 8.4213807 : 1"
       inkscape:persp3d-origin="27.11208 : -14.139339 : 1"
       id="perspective134" />
    <inkscape:path-effect
       effect="spiro"
       id="path-effect1936-1"
       is_visible="true" />
    <inkscape:path-effect
       effect="spiro"
       id="path-effect1936-0"
       is_visible="true" />
    <inkscape:path-effect
       effect="spiro"
       id="path-effect2321-8"
       is_visible="true" />
    <inkscape:path-effect
       effect="spiro"
       id="path-effect2321-2"
       is_visible="true" />
    <inkscape:path-effect
       effect="spiro"
       id="path-effect2321-5"
       is_visible="true" />
  </defs>
  <sodipodi:namedview
     id="base"
     pagecolor="#ffffff"
     bordercolor="#666666"
     borderopacity="1.0"
     inkscape:pageopacity="0.0"
     inkscape:pageshadow="2"
     inkscape:zoom="1.9610405"
     inkscape:cx="140.06698"
     inkscape:cy="93.294254"
     inkscape:document-units="px"
     inkscape:current-layer="layer1"
     showgrid="false"
     units="px"
     inkscape:window-width="1366"
     inkscape:window-height="714"
     inkscape:window-x="0"
     inkscape:window-y="0"
     inkscape:window-maximized="1"
     inkscape:pagecheckerboard="true"
     showguides="true"
     inkscape:guide-bbox="true"
     inkscape:snap-global="false">
    <sodipodi:guide
       position="-3.7777564,48.571153"
       orientation="0,1"
       id="guide1711"
       inkscape:locked="false" />
    <sodipodi:guide
       position="26.521967,13.16558"
       orientation="1,0"
       id="guide1715"
       inkscape:locked="false" />
    <sodipodi:guide
       position="5.2618749,57.475865"
       orientation="1,0"
       id="guide1717"
       inkscape:locked="false" />
    <sodipodi:guide
       position="-4.4839295,5.437957"
       orientation="0,1"
       id="guide1761"
       inkscape:locked="false" />
    <sodipodi:guide
       position="61.725583,11.352928"
       orientation="1,0"
       id="guide1763"
       inkscape:locked="false" />
    <sodipodi:guide
       position="-8.9047114,52.618749"
       orientation="-0.70710678,0.70710678"
       id="guide3260"
       inkscape:locked="false" />
    <sodipodi:guide
       position="-4.4839295,-2.0034579"
       orientation="0,1"
       id="guide3262"
       inkscape:locked="false" />
    <sodipodi:guide
       position="-3.6253047,-2.0034579"
       orientation="0,1"
       id="guide1743"
       inkscape:locked="false" />
    <sodipodi:guide
       position="47.626714,55.856826"
       orientation="1,0"
       id="guide1818"
       inkscape:locked="false" />
    <sodipodi:guide
       position="15.245946,9.4443906"
       orientation="0,1"
       id="guide2357"
       inkscape:locked="false" />
  </sodipodi:namedview>
  <metadata
     id="metadata5">
    <rdf:RDF>
      <cc:Work
         rdf:about="">
        <dc:format>image/svg+xml</dc:format>
        <dc:type
           rdf:resource="http://purl.org/dc/dcmitype/StillImage" />
        <dc:title></dc:title>
      </cc:Work>
    </rdf:RDF>
  </metadata>
  <g
     inkscape:label="Capa 1"
     inkscape:groupmode="layer"
     id="layer1"
     transform="translate(0,-244.08334)">
    <path
       inkscape:connector-curvature="0"
       style="opacity:1;vector-effect:none;fill:#000000;fill-opacity:1;stroke:#000000;stroke-width:0.79374999;stroke-linecap:butt;stroke-linejoin:miter;stroke-miterlimit:3.9000001;stroke-dasharray:none;stroke-dashoffset:0;stroke-opacity:1;paint-order:stroke fill markers"
       d="m 4.1584026,245.4476 c -1.6376939,0 -2.9543417,1.31871 -2.9543417,2.95641 v 44.65671 c 0,1.63769 1.3166478,2.95641 2.9543417,2.95641 H 48.183623 c 1.637694,0 2.956409,-1.31872 2.956409,-2.95641 v -44.65671 c 0,-1.6377 -1.318715,-2.95641 -2.956409,-2.95641 z"
       id="path3327-3" />
    <text
       xml:space="preserve"
       style="font-style:normal;font-weight:normal;font-size:10.58333302px;line-height:125%;font-family:sans-serif;letter-spacing:0px;word-spacing:0px;fill:#000000;fill-opacity:1;stroke:none;stroke-width:0.26458332px;stroke-linecap:butt;stroke-linejoin:miter;stroke-opacity:1"
       x="13.547192"
       y="276.77463"
       id="text152"><tspan
         sodipodi:role="line"
         id="tspan150"
         x="13.547192"
         y="286.1384"
         style="stroke-width:0.26458332px" /></text>
    <text
       xml:space="preserve"
       style="font-style:normal;font-weight:normal;font-size:10.58333302px;line-height:125%;font-family:sans-serif;letter-spacing:0px;word-spacing:0px;fill:#000000;fill-opacity:1;stroke:none;stroke-width:0.26458332px;stroke-linecap:butt;stroke-linejoin:miter;stroke-opacity:1"
       x="11.352927"
       y="273.72174"
       id="text1011"><tspan
         sodipodi:role="line"
         id="tspan1009"
         x="11.352927"
         y="283.08551"
         style="stroke-width:0.26458332px" /></text>
    <flowRoot
       xml:space="preserve"
       id="flowRoot1082"
       style="fill:black;stroke:none;stroke-opacity:1;stroke-width:1px;stroke-linejoin:miter;stroke-linecap:butt;fill-opacity:1;font-family:sans-serif;font-style:normal;font-weight:normal;font-size:40px;line-height:125%;letter-spacing:0px;word-spacing:0px"><flowRegion
         id="flowRegion1084"><rect
           id="rect1086"
           width="9.0144339"
           height="129.80785"
           x="30.649075"
           y="32.331535" /></flowRegion><flowPara
         id="flowPara1088" /></flowRoot>    <rect
       style="opacity:1;vector-effect:none;fill:#ffffff;fill-opacity:1;fill-rule:evenodd;stroke:none;stroke-width:0.95148069;stroke-linecap:round;stroke-linejoin:round;stroke-miterlimit:4;stroke-dasharray:none;stroke-dashoffset:0;stroke-opacity:1;paint-order:stroke fill markers"
       id="rect2293"
       width="21.575705"
       height="24.150658"
       x="15.515785"
       y="267.45258"
       ry="0.51751399" />
    <path
       style="fill:none;fill-rule:evenodd;stroke:#ffffff;stroke-width:2.5135417;stroke-linecap:butt;stroke-linejoin:miter;stroke-miterlimit:4;stroke-dasharray:none;stroke-opacity:0.98139535"
       d="m 36.158524,271.76999 c 1.052901,-0.47326 2.226343,-0.67536 3.376902,-0.58159 1.150559,0.0938 2.275794,0.48319 3.238174,1.12069 0.962381,0.63749 1.759865,1.5217 2.29498,2.54456 0.535116,1.02285 0.806728,2.18218 0.781639,3.33628 -0.02509,1.1541 -0.346826,2.30052 -0.925886,3.29916 -0.579061,0.99863 -1.414217,1.84735 -2.403392,2.44242 -0.989175,0.59507 -2.130271,0.93523 -3.283818,0.97891 -1.153546,0.0437 -2.317097,-0.20923 -3.348437,-0.7278 -0.379602,-0.19087 -0.741451,-0.41702 -1.07936,-0.6746"
       id="path2295"
       inkscape:connector-curvature="0"
       inkscape:path-effect="#path-effect2297"
       inkscape:original-d="m 36.158524,271.76999 c -0.04471,4.13728 -0.179628,8.27482 -0.269838,12.41263 -0.09021,4.13781 -0.719309,-0.45 -1.07936,-0.6746"
       transform="matrix(0.66066788,-0.11151997,0.08132105,0.90600966,-10.422255,31.451008)" />
    <path
       style="fill:#ffffff;fill-rule:evenodd;stroke:#000000;stroke-width:0.26458332px;stroke-linecap:butt;stroke-linejoin:miter;stroke-opacity:1"
       d="m 72.586889,269.74619 c -0.03615,-0.47339 -0.03638,-0.95247 0.04898,-1.41951 0.08536,-0.46703 0.259325,-0.92318 0.547066,-1.30082 0.287741,-0.37764 0.694447,-0.67274 1.156053,-0.78377 0.230803,-0.0555 0.473277,-0.0648 0.706578,-0.0209 0.233301,0.0439 0.457083,0.14123 0.64448,0.28695 0.105778,0.0822 0.19959,0.17923 0.307049,0.25928 0.107459,0.08 0.233566,0.14393 0.367552,0.14548 0.08614,0.001 0.172406,-0.0246 0.244084,-0.0724 0.07168,-0.0478 0.128465,-0.11758 0.160675,-0.19748 -0.543129,-0.24888 -1.015244,-0.65057 -1.347899,-1.14683 -0.332656,-0.49626 -0.524847,-1.08559 -0.54871,-1.68255 -0.02386,-0.59696 0.120672,-1.19975 0.412653,-1.72098 0.291981,-0.52122 0.730526,-0.95932 1.252055,-1.25076 0.521529,-0.29144 1.124468,-0.43536 1.721404,-0.41088 0.596936,0.0245 1.186066,0.21728 1.68198,0.55045 0.495915,0.33317 0.897116,0.8057 1.145438,1.34908 0.248323,0.54339 0.343017,1.15599 0.270354,1.74899 -0.01655,0.13507 -0.04118,0.27506 0,0.40476 0.04,0.12598 0.143858,0.22984 0.26984,0.26984 0.15481,-0.34315 0.40697,-0.64174 0.71936,-0.85181 0.312391,-0.21007 0.684038,-0.33097 1.060234,-0.3449 0.376196,-0.0139 0.755768,0.0791 1.082842,0.26553 0.327074,0.18639 0.60063,0.4655 0.7804,0.79626 0.160426,0.29517 0.246346,0.63309 0.228365,0.96855 -0.01798,0.33547 -0.142472,0.66715 -0.363284,0.92033 -0.04184,0.048 -0.08695,0.0931 -0.134921,0.13492 0.243369,-0.41338 0.599252,-0.75977 1.019053,-0.99188 0.419801,-0.23211 0.902401,-0.34931 1.381901,-0.33561 0.4795,0.0137 0.95462,0.15827 1.360484,0.41397 0.405864,0.2557 0.741389,0.62184 0.960758,1.04844 0.06544,0.12726 0.121395,0.2623 0.134919,0.40475 0.0043,0.0448 0.0043,0.0901 0,0.13492 -0.125274,-0.50891 -0.03074,-1.06803 0.254889,-1.50746 0.285624,-0.43944 0.758209,-0.75284 1.274149,-0.84497 0.51594,-0.0921 1.067787,0.0383 1.487847,0.35176 0.42006,0.31342 0.702269,0.80527 0.760872,1.32608 0.02517,0.22372 0.0109,0.44973 0,0.67459 -0.03485,0.71901 -0.03485,1.43971 0,2.15872 l -17.539583,0.13492 -0.134919,13.76183 c -0.663352,0.46109 -1.531129,0.61548 -2.312808,0.41147 -0.781679,-0.20402 -1.46333,-0.76278 -1.816742,-1.48924 -0.353413,-0.72646 -0.372289,-1.60766 -0.05031,-2.34859 0.32198,-0.74093 0.979077,-1.32837 1.751303,-1.56567 0.04874,-0.015 0.09804,-0.0287 0.144825,-0.049 0.04678,-0.0203 0.0914,-0.0476 0.125013,-0.086 0.0362,-0.0413 0.05833,-0.0947 0.06194,-0.14947 0.0036,-0.0548 -0.0113,-0.11063 -0.04176,-0.15631 -0.03046,-0.0457 -0.07627,-0.0809 -0.128228,-0.0987 -0.05196,-0.0177 -0.109765,-0.0178 -0.161795,-3.1e-4 -0.412791,-0.23431 -0.702275,-0.67366 -0.754692,-1.14541 -0.05242,-0.47175 0.133561,-0.96394 0.484851,-1.28314 0.26945,-0.24484 0.615757,-0.3831 0.944438,-0.53968 0.09079,-0.0433 0.180762,-0.0882 0.269841,-0.13492 -1.087537,-1.43877 -1.751571,-3.19372 -1.888879,-4.99204 z"
       id="path2311"
       inkscape:connector-curvature="0"
       inkscape:path-effect="#path-effect2313"
       inkscape:original-d="m 72.586889,269.74619 c -0.629891,-1.66374 2.069036,-2.15898 3.103157,-3.23807 1.034122,-1.0791 0.449998,0.26957 0.674601,0.40476 0.224602,0.13518 0.404759,-0.26984 0.404759,-0.26984 0,0 3.058449,-1.70925 4.587275,-2.56348 1.528828,-0.85423 2.64e-4,0.26957 0,0.40476 -2.65e-4,0.13518 0.26984,0.26984 0.26984,0.26984 0,0 2.428822,-0.0902 3.642836,-0.13492 1.214014,-0.0447 -0.08968,1.25898 -0.134919,1.88888 -0.04524,0.62989 -0.134921,0.13492 -0.134921,0.13492 0,0 3.148396,0.0897 4.722196,0.13492 1.5738,0.0452 0.09021,0.26957 0.134919,0.40475 0.04471,0.13519 0,0.13492 0,0.13492 0,0 2.518769,-0.44999 3.777757,-0.67459 1.258989,-0.22461 2.65e-4,0.44946 0,0.67459 -2.64e-4,0.22514 0,2.15872 0,2.15872 0,0 -17.539583,0.13492 -17.539583,0.13492 0,0 -0.134919,13.76183 -0.134919,13.76183 0,0 -1.618774,-3.32829 -2.428557,-4.99203 -0.809784,-1.66375 0.180157,-0.0902 0.269838,-0.13493 0.08968,-0.0447 -0.269838,-0.40476 -0.269838,-0.40476 0,0 -0.179629,-1.6193 -0.269841,-2.42855 -0.09021,-0.80926 0.629891,-0.36005 0.944438,-0.53968 0.31455,-0.17963 0.269841,-0.13492 0.269841,-0.13492 0,0 -1.258988,-3.32829 -1.888879,-4.99204 z"
       transform="translate(-60.983781,-2.4285577)" />
    <path
       style="fill:none;fill-rule:evenodd;stroke:#000000;stroke-width:0.26458332px;stroke-linecap:butt;stroke-linejoin:miter;stroke-opacity:1"
       d="m 19.023701,287.01594 v -13.35707 c -0.02375,-0.44504 0.137542,-0.89711 0.43764,-1.2266 0.300098,-0.32949 0.735177,-0.5322 1.180492,-0.55002 0.445315,-0.0178 0.895195,0.14951 1.220652,0.45397 0.325456,0.30447 0.522344,0.74222 0.534213,1.18773 0.0012,0.045 5.98e-4,0.0899 0,0.13492 -0.05982,4.49716 -0.104791,8.99452 -0.13492,13.49198"
       id="path2319"
       inkscape:connector-curvature="0"
       inkscape:path-effect="#path-effect2321"
       inkscape:original-d="m 19.023701,287.01594 c -0.04471,-4.4976 0,-13.35707 0,-13.35707 0,0 2.24893,-0.0902 3.372997,-0.13492 1.124068,-0.0447 2.65e-4,0.0897 0,0.13492 -2.64e-4,0.0452 -0.13492,13.49198 -0.13492,13.49198"
       transform="translate(-0.26983974,0.53967948)" />
    <path
       transform="translate(5.8698264,0.41498515)"
       style="fill:none;fill-rule:evenodd;stroke:#000000;stroke-width:0.26458332px;stroke-linecap:butt;stroke-linejoin:miter;stroke-opacity:1"
       d="m 19.023701,287.01594 v -13.35707 c -0.02375,-0.44504 0.137542,-0.89711 0.43764,-1.2266 0.300098,-0.32949 0.735177,-0.5322 1.180492,-0.55002 0.445315,-0.0178 0.895195,0.14951 1.220652,0.45397 0.325456,0.30447 0.522344,0.74222 0.534213,1.18773 0.0012,0.045 5.98e-4,0.0899 0,0.13492 -0.05982,4.49716 -0.104791,8.99452 -0.13492,13.49198"
       id="path2319-2"
       inkscape:connector-curvature="0"
       inkscape:path-effect="#path-effect2321-2"
       inkscape:original-d="m 19.023701,287.01594 c -0.04471,-4.4976 0,-13.35707 0,-13.35707 0,0 2.24893,-0.0902 3.372997,-0.13492 1.124068,-0.0447 2.65e-4,0.0897 0,0.13492 -2.64e-4,0.0452 -0.13492,13.49198 -0.13492,13.49198" />
    <path
       transform="translate(11.8063,0.54990505)"
       style="fill:none;fill-rule:evenodd;stroke:#000000;stroke-width:0.26458332px;stroke-linecap:butt;stroke-linejoin:miter;stroke-opacity:1"
       d="m 19.023701,287.01594 v -13.35707 c -0.02375,-0.44504 0.137542,-0.89711 0.43764,-1.2266 0.300098,-0.32949 0.735177,-0.5322 1.180492,-0.55002 0.445315,-0.0178 0.895195,0.14951 1.220652,0.45397 0.325456,0.30447 0.522344,0.74222 0.534213,1.18773 0.0012,0.045 5.98e-4,0.0899 0,0.13492 -0.05982,4.49716 -0.104791,8.99452 -0.13492,13.49198"
       id="path2319-23"
       inkscape:connector-curvature="0"
       inkscape:path-effect="#path-effect2321-5"
       inkscape:original-d="m 19.023701,287.01594 c -0.04471,-4.4976 0,-13.35707 0,-13.35707 0,0 2.24893,-0.0902 3.372997,-0.13492 1.124068,-0.0447 2.65e-4,0.0897 0,0.13492 -2.64e-4,0.0452 -0.13492,13.49198 -0.13492,13.49198" />
    <rect
       style="opacity:1;vector-effect:none;fill:#ffffff;fill-opacity:1;fill-rule:evenodd;stroke:#ffffff;stroke-width:1.91312814;stroke-linecap:round;stroke-linejoin:round;stroke-miterlimit:4;stroke-dasharray:none;stroke-dashoffset:0;stroke-opacity:0.98139535;paint-order:stroke fill markers"
       id="rect2359"
       width="18.409836"
       height="1.8146923"
       x="16.834616"
       y="287.66019"
       ry="0.34025478" />
    <path
       sodipodi:type="star"
       style="opacity:1;vector-effect:none;fill:#ffffff;fill-opacity:1;fill-rule:evenodd;stroke:#ffffff;stroke-width:0.77331847;stroke-linecap:round;stroke-linejoin:round;stroke-miterlimit:4;stroke-dasharray:none;stroke-dashoffset:0;stroke-opacity:0.98139535;paint-order:stroke fill markers"
       id="path2363"
       sodipodi:sides="4"
       sodipodi:cx="30.559353"
       sodipodi:cy="250.78995"
       sodipodi:r1="1.4687583"
       sodipodi:r2="0.014687583"
       sodipodi:arg1="0.82537685"
       sodipodi:arg2="1.610775"
       inkscape:flatsided="false"
       inkscape:rounded="0.07"
       inkscape:randomized="0"
       d="m 31.555582,251.8692 c -0.07502,0.0692 -0.894809,-1.0605 -0.996816,-1.06458 -0.102007,-0.004 -1.009417,1.05657 -1.078662,0.98156 -0.06925,-0.075 1.060493,-0.89481 1.064573,-0.99682 0.0041,-0.10201 -1.056569,-1.00942 -0.981554,-1.07866 0.07502,-0.0693 0.89481,1.06049 0.996817,1.06457 0.102007,0.004 1.009417,-1.05657 1.078662,-0.98155 0.06924,0.075 -1.060493,0.89481 -1.064573,0.99681 -0.0041,0.10201 1.056569,1.00942 0.981553,1.07867 z" />
    <path
       sodipodi:type="star"
       style="opacity:1;vector-effect:none;fill:#ffffff;fill-opacity:1;fill-rule:evenodd;stroke:#ffffff;stroke-width:0.77331853;stroke-linecap:round;stroke-linejoin:round;stroke-miterlimit:4;stroke-dasharray:none;stroke-dashoffset:0;stroke-opacity:0.98139535;paint-order:stroke fill markers"
       id="path2363-2"
       sodipodi:sides="4"
       sodipodi:cx="36.293447"
       sodipodi:cy="258.54785"
       sodipodi:r1="1.4687583"
       sodipodi:r2="0.014687583"
       sodipodi:arg1="0.82537685"
       sodipodi:arg2="1.610775"
       inkscape:flatsided="false"
       inkscape:rounded="0.07"
       inkscape:randomized="0"
       d="m 37.289675,259.6271 c -0.07502,0.0692 -0.894809,-1.06049 -0.996816,-1.06457 -0.102008,-0.004 -1.009417,1.05657 -1.078662,0.98155 -0.06924,-0.075 1.060492,-0.89481 1.064573,-0.99682 0.0041,-0.102 -1.056569,-1.00941 -0.981554,-1.07866 0.07502,-0.0692 0.89481,1.0605 0.996817,1.06458 0.102007,0.004 1.009417,-1.05657 1.078661,-0.98156 0.06924,0.075 -1.060492,0.89481 -1.064573,0.99682 -0.0041,0.10201 1.056569,1.00942 0.981554,1.07866 z" />
    <path
       sodipodi:type="star"
       style="opacity:1;vector-effect:none;fill:#ffffff;fill-opacity:1;fill-rule:evenodd;stroke:#ffffff;stroke-width:0.77331853;stroke-linecap:round;stroke-linejoin:round;stroke-miterlimit:4;stroke-dasharray:none;stroke-dashoffset:0;stroke-opacity:0.98139535;paint-order:stroke fill markers"
       id="path2363-7"
       sodipodi:sides="4"
       sodipodi:cx="20.64274"
       sodipodi:cy="255.30977"
       sodipodi:r1="1.4687583"
       sodipodi:r2="0.014687583"
       sodipodi:arg1="0.82537685"
       sodipodi:arg2="1.610775"
       inkscape:flatsided="false"
       inkscape:rounded="0.07"
       inkscape:randomized="0"
       d="m 21.63897,256.38902 c -0.07502,0.0692 -0.89481,-1.0605 -0.996817,-1.06458 -0.102007,-0.004 -1.009417,1.05657 -1.078661,0.98156 -0.06924,-0.075 1.060492,-0.89481 1.064572,-0.99682 0.0041,-0.10201 -1.056568,-1.00942 -0.981553,-1.07866 0.07502,-0.0692 0.894809,1.06049 0.996816,1.06457 0.102007,0.004 1.009417,-1.05657 1.078662,-0.98155 0.06924,0.075 -1.060493,0.89481 -1.064573,0.99682 -0.0041,0.102 1.056569,1.00941 0.981554,1.07866 z" />
  </g>
</svg>
