<?xml version="1.0" encoding="UTF-8" standalone="no"?>
<!-- Created with Inkscape (http://www.inkscape.org/) -->

<svg
   xmlns:dc="http://purl.org/dc/elements/1.1/"
   xmlns:cc="http://creativecommons.org/ns#"
   xmlns:rdf="http://www.w3.org/1999/02/22-rdf-syntax-ns#"
   xmlns:svg="http://www.w3.org/2000/svg"
   xmlns="http://www.w3.org/2000/svg"
   xmlns:sodipodi="http://sodipodi.sourceforge.net/DTD/sodipodi-0.dtd"
   xmlns:inkscape="http://www.inkscape.org/namespaces/inkscape"
   width="200"
   height="200"
   viewBox="0 0 52.916668 52.916665"
   version="1.1"
   id="svg8"
   inkscape:version="0.92.5 (0.92.5+68)"
   sodipodi:docname="en.svg"
   inkscape:export-filename="/home/angel/Documentos/Desarrollo/Appuelo/IMGS/ICON/hotel.png"
   inkscape:export-xdpi="96"
   inkscape:export-ydpi="96">
  <defs
     id="defs2">
    <inkscape:path-effect
       effect="spiro"
       id="path-effect1988"
       is_visible="true" />
    <inkscape:path-effect
       effect="spiro"
       id="path-effect1974"
       is_visible="true" />
    <inkscape:path-effect
       effect="spiro"
       id="path-effect1970"
       is_visible="true" />
    <inkscape:path-effect
       effect="spiro"
       id="path-effect1936"
       is_visible="true" />
    <inkscape:path-effect
       effect="spiro"
       id="path-effect965"
       is_visible="true" />
    <inkscape:path-effect
       effect="spiro"
       id="path-effect957"
       is_visible="true" />
    <inkscape:path-effect
       effect="spiro"
       id="path-effect953"
       is_visible="true" />
    <inkscape:path-effect
       effect="spiro"
       id="path-effect1037"
       is_visible="true" />
    <inkscape:path-effect
       effect="bspline"
       id="path-effect1033"
       is_visible="true"
       weight="33.333333"
       steps="2"
       helper_size="0"
       apply_no_weight="true"
       apply_with_weight="true"
       only_selected="false" />
    <inkscape:path-effect
       effect="bspline"
       id="path-effect1029"
       is_visible="true"
       weight="33.333333"
       steps="2"
       helper_size="0"
       apply_no_weight="true"
       apply_with_weight="true"
       only_selected="false" />
    <inkscape:path-effect
       effect="spiro"
       id="path-effect1025"
       is_visible="true" />
    <inkscape:perspective
       sodipodi:type="inkscape:persp3d"
       inkscape:vp_x="-17.541171 : 8.4213807 : 1"
       inkscape:vp_y="0 : 2558.0658 : 0"
       inkscape:vp_z="71.765332 : 8.4213807 : 1"
       inkscape:persp3d-origin="27.11208 : -14.139339 : 1"
       id="perspective134" />
    <inkscape:path-effect
       effect="spiro"
       id="path-effect1936-1"
       is_visible="true" />
    <inkscape:path-effect
       effect="spiro"
       id="path-effect1936-0"
       is_visible="true" />
  </defs>
  <sodipodi:namedview
     id="base"
     pagecolor="#ffffff"
     bordercolor="#666666"
     borderopacity="1.0"
     inkscape:pageopacity="0.0"
     inkscape:pageshadow="2"
     inkscape:zoom="1.9610405"
     inkscape:cx="128.33851"
     inkscape:cy="93.294254"
     inkscape:document-units="px"
     inkscape:current-layer="layer1"
     showgrid="false"
     units="px"
     inkscape:window-width="1366"
     inkscape:window-height="714"
     inkscape:window-x="0"
     inkscape:window-y="0"
     inkscape:window-maximized="1"
     inkscape:pagecheckerboard="true"
     showguides="true"
     inkscape:guide-bbox="true"
     inkscape:snap-global="false">
    <sodipodi:guide
       position="-1.9080552,51.708292"
       orientation="0,1"
       id="guide1693"
       inkscape:locked="false" />
    <sodipodi:guide
       position="-3.7777564,48.571153"
       orientation="0,1"
       id="guide1711"
       inkscape:locked="false" />
    <sodipodi:guide
       position="26.521967,13.16558"
       orientation="1,0"
       id="guide1715"
       inkscape:locked="false" />
    <sodipodi:guide
       position="5.2618749,57.475865"
       orientation="1,0"
       id="guide1717"
       inkscape:locked="false" />
    <sodipodi:guide
       position="-4.4839295,5.437957"
       orientation="0,1"
       id="guide1761"
       inkscape:locked="false" />
    <sodipodi:guide
       position="61.725583,11.352928"
       orientation="1,0"
       id="guide1763"
       inkscape:locked="false" />
    <sodipodi:guide
       position="-8.9047114,52.618749"
       orientation="-0.70710678,0.70710678"
       id="guide3260"
       inkscape:locked="false" />
    <sodipodi:guide
       position="-4.4839295,-2.0034579"
       orientation="0,1"
       id="guide3262"
       inkscape:locked="false" />
    <sodipodi:guide
       position="-3.6253047,-2.0034579"
       orientation="0,1"
       id="guide1743"
       inkscape:locked="false" />
    <sodipodi:guide
       position="47.626714,55.856826"
       orientation="1,0"
       id="guide1818"
       inkscape:locked="false" />
  </sodipodi:namedview>
  <metadata
     id="metadata5">
    <rdf:RDF>
      <cc:Work
         rdf:about="">
        <dc:format>image/svg+xml</dc:format>
        <dc:type
           rdf:resource="http://purl.org/dc/dcmitype/StillImage" />
        <dc:title></dc:title>
      </cc:Work>
    </rdf:RDF>
  </metadata>
  <g
     inkscape:label="Capa 1"
     inkscape:groupmode="layer"
     id="layer1"
     transform="translate(0,-244.08334)">
    <path
       inkscape:connector-curvature="0"
       style="opacity:1;vector-effect:none;fill:#000000;fill-opacity:1;stroke:#000000;stroke-width:0.79374999;stroke-linecap:butt;stroke-linejoin:miter;stroke-miterlimit:3.9000001;stroke-dasharray:none;stroke-dashoffset:0;stroke-opacity:1;paint-order:stroke fill markers"
       d="m 4.1584026,245.4476 c -1.6376939,0 -2.9543417,1.31871 -2.9543417,2.95641 v 44.65671 c 0,1.63769 1.3166478,2.95641 2.9543417,2.95641 H 48.183623 c 1.637694,0 2.956409,-1.31872 2.956409,-2.95641 v -44.65671 c 0,-1.6377 -1.318715,-2.95641 -2.956409,-2.95641 z"
       id="path3327-3" />
    <text
       xml:space="preserve"
       style="font-style:normal;font-weight:normal;font-size:10.58333302px;line-height:125%;font-family:sans-serif;letter-spacing:0px;word-spacing:0px;fill:#000000;fill-opacity:1;stroke:none;stroke-width:0.26458332px;stroke-linecap:butt;stroke-linejoin:miter;stroke-opacity:1"
       x="13.547192"
       y="276.77463"
       id="text152"><tspan
         sodipodi:role="line"
         id="tspan150"
         x="13.547192"
         y="286.1384"
         style="stroke-width:0.26458332px" /></text>
    <text
       xml:space="preserve"
       style="font-style:normal;font-weight:normal;font-size:10.58333302px;line-height:125%;font-family:sans-serif;letter-spacing:0px;word-spacing:0px;fill:#000000;fill-opacity:1;stroke:none;stroke-width:0.26458332px;stroke-linecap:butt;stroke-linejoin:miter;stroke-opacity:1"
       x="11.352927"
       y="273.72174"
       id="text1011"><tspan
         sodipodi:role="line"
         id="tspan1009"
         x="11.352927"
         y="283.08551"
         style="stroke-width:0.26458332px" /></text>
    <flowRoot
       xml:space="preserve"
       id="flowRoot1082"
       style="fill:black;stroke:none;stroke-opacity:1;stroke-width:1px;stroke-linejoin:miter;stroke-linecap:butt;fill-opacity:1;font-family:sans-serif;font-style:normal;font-weight:normal;font-size:40px;line-height:125%;letter-spacing:0px;word-spacing:0px"><flowRegion
         id="flowRegion1084"><rect
           id="rect1086"
           width="9.0144339"
           height="129.80785"
           x="30.649075"
           y="32.331535" /></flowRegion><flowPara
         id="flowPara1088" /></flowRoot>    <rect
       style="opacity:1;vector-effect:none;fill:#ffffff;fill-opacity:1;fill-rule:evenodd;stroke:#000000;stroke-width:0.58735681;stroke-linecap:round;stroke-linejoin:round;stroke-miterlimit:4;stroke-dasharray:none;stroke-dashoffset:0;stroke-opacity:1;paint-order:stroke fill markers"
       id="rect1964"
       width="39.374249"
       height="5.7791977"
       x="7.0270119"
       y="285.54297"
       ry="2.8895988" />
    <rect
       style="opacity:1;vector-effect:none;fill:#ffffff;fill-opacity:1;fill-rule:evenodd;stroke:#000000;stroke-width:0.58336103;stroke-linecap:round;stroke-linejoin:round;stroke-miterlimit:4;stroke-dasharray:none;stroke-dashoffset:0;stroke-opacity:1;paint-order:stroke fill markers"
       id="rect1966"
       width="42.211559"
       height="3.6244752"
       x="5.4059753"
       y="277.85056"
       ry="1.8122376" />
    <path
       style="fill:#ffffff;fill-rule:evenodd;stroke:#000000;stroke-width:0.68638249;stroke-linecap:butt;stroke-linejoin:miter;stroke-miterlimit:4;stroke-dasharray:none;stroke-opacity:1"
       d="m 7.6904325,320.20622 c 0.3343011,0.89858 0.8485548,1.73771 1.5460865,2.39547 0.6975317,0.65777 1.58305,1.12793 2.530975,1.27162 0.947925,0.14368 1.954936,-0.0521 2.745002,-0.59525 0.790066,-0.54314 1.342169,-1.44075 1.408049,-2.39724 0.03402,-0.49399 -0.05624,-0.99216 0,-1.48412 0.0658,-0.57552 0.338706,-1.12542 0.758376,-1.52471 0.419669,-0.39929 0.983047,-0.64463 1.561339,-0.67829 0.578291,-0.0337 1.166857,0.14493 1.627957,0.49556 0.4611,0.35063 0.790698,0.87063 0.909443,1.4376 0.138865,0.66303 -0.0038,1.36073 0.13492,2.0238 0.10124,0.48397 0.356213,0.93666 0.72671,1.2641 0.370496,0.32743 0.855786,0.52571 1.350083,0.53804 0.494296,0.0123 0.993268,-0.16423 1.361092,-0.49467 0.367824,-0.33043 0.597833,-0.81316 0.609711,-1.30747 0.0077,-0.31909 -0.07133,-0.63308 -0.146129,-0.94337 -0.0748,-0.3103 -0.146424,-0.62713 -0.123711,-0.9455 0.02552,-0.35775 0.174122,-0.70555 0.414847,-0.97143 0.240726,-0.26588 0.572025,-0.44817 0.925419,-0.50943 0.353395,-0.0613 0.726654,-0.001 1.043019,0.16787 0.316365,0.16897 0.573875,0.4457 0.719871,0.7733 0.154876,0.34753 0.183448,0.74045 0.146604,1.11914 -0.03684,0.37869 -0.13609,0.74806 -0.228188,1.11722 -0.0921,0.36917 -0.177813,0.74323 -0.186665,1.1236 -0.0089,0.38038 0.064,0.77139 0.268249,1.0924 0.173526,0.27272 0.438519,0.48514 0.740614,0.60014 0.302095,0.115 0.639533,0.13281 0.953376,0.0554 0.313842,-0.0774 0.603066,-0.24896 0.825373,-0.48362 0.222307,-0.23466 0.377519,-0.53126 0.448876,-0.84653 0.08977,-0.39661 0.04822,-0.80973 0.0047,-1.21403 -0.04355,-0.4043 -0.08832,-0.81659 -0.0047,-1.21453 0.09402,-0.44728 0.35065,-0.85392 0.695397,-1.15401 0.344746,-0.30008 0.774176,-0.49598 1.221626,-0.5892 0.894901,-0.18643 1.830739,0.0323 2.670251,0.39401 0.58331,0.25131 1.143433,0.57672 1.59023,1.02814 0.446796,0.45143 0.774686,1.03831 0.838327,1.67026 0.03016,0.29954 0.0014,0.60186 0.01412,0.90264 0.01276,0.30078 0.07272,0.61228 0.255725,0.85132 0.107757,0.14075 0.254666,0.25009 0.417823,0.31938 0.163157,0.0693 0.342131,0.0991 0.519301,0.0933 0.354338,-0.0115 0.694017,-0.16342 0.975287,-0.37923 0.562539,-0.43162 0.894059,-1.08997 1.325666,-1.65252 0.166432,-0.21692 0.351825,-0.42342 0.578238,-0.57669 0.226413,-0.15328 0.49813,-0.25073 0.770959,-0.23283 0.189543,0.0124 0.373168,0.0799 0.534881,0.1796 0.161714,0.0996 0.302417,0.23071 0.426513,0.37452 0.248193,0.28762 0.431025,0.6251 0.657647,0.93 0.651337,0.87633 1.689138,1.46528 2.779006,1.53147 0.544935,0.0331 1.097854,-0.0609 1.598912,-0.2777 0.501058,-0.21677 0.949182,-0.55642 1.288716,-0.98393 0.57234,-0.72064 0.813503,-1.64687 0.962531,-2.55499 0.149027,-0.90812 0.222584,-1.83654 0.521586,-2.70688 0.07758,-0.22583 0.170755,-0.44959 0.197342,-0.6869 0.01329,-0.11865 0.0094,-0.24011 -0.02141,-0.35545 -0.03083,-0.11535 -0.08951,-0.22447 -0.175932,-0.30685 -0.07019,-0.0669 -0.157949,-0.11521 -0.252022,-0.13873 -0.09407,-0.0235 -0.194239,-0.0222 -0.287656,0.004 l -43.4441983,0.13492 c -0.3353992,1.42393 -0.2402484,2.94634 0.2698398,4.31743 z"
       id="path1986"
       inkscape:connector-curvature="0"
       inkscape:path-effect="#path-effect1988"
       inkscape:original-d="m 7.6904325,320.20622 c 0.089682,1.43941 5.4870055,0.44947 8.2301125,0.6746 2.743106,0.22514 2.64e-4,-0.98968 0,-1.48412 -2.65e-4,-0.49444 3.238341,-0.18015 4.857115,-0.26984 1.618774,-0.0897 0.09021,1.34894 0.13492,2.0238 0.04471,0.67487 2.698662,-2.6e-4 4.047596,0 1.348934,2.7e-4 -0.179629,-1.25952 -0.26984,-1.88887 -0.09021,-0.62937 2.069035,-0.36006 3.103156,-0.53969 1.034121,-0.17962 2.65e-4,2.96798 0,4.45236 -2.65e-4,1.48438 1.979091,-0.45 2.968239,-0.6746 0.989147,-0.2246 2.64e-4,-1.6193 0,-2.42856 -2.65e-4,-0.80925 3.058448,-0.89973 4.587274,-1.3492 1.528829,-0.44946 1.619303,1.79867 2.428557,2.6984 0.809255,0.89973 0.180158,1.16904 0.269841,1.75396 0.08968,0.58492 2.158981,-1.07962 3.238077,-1.61904 1.079095,-0.53941 0.899731,-0.53994 1.349197,-0.80952 0.449469,-0.26957 1.079625,0.98915 1.619041,1.48412 0.539414,0.49497 3.77802,0.17963 5.666634,0.26984 1.888612,0.0902 0.989677,-3.50818 1.484117,-5.26187 0.494443,-1.7537 2.65e-4,-0.89973 0,-1.3492 -2.65e-4,-0.44947 -0.539678,-0.13492 -0.539678,-0.13492 0,0 -43.4441983,0.13492 -43.4441983,0.13492 0,0 0.1801577,2.87802 0.2698398,4.31743 z"
       transform="matrix(0.93073955,0,0,0.70942358,-0.32370898,58.529355)" />
    <path
       style="fill:none;fill-rule:evenodd;stroke:#ffffff;stroke-width:0.95249999;stroke-linecap:round;stroke-linejoin:round;stroke-miterlimit:4;stroke-dasharray:none;stroke-opacity:1"
       d="m 5.9364743,275.41283 c 0,0 4.4523557,-2.83332 10.3888307,-0.40476 5.936474,2.42855 9.98407,0.13492 9.98407,0.13492 0,0 5.531715,-2.83332 11.46819,0 5.936474,2.83332 9.579311,0.26984 9.579311,0.26984"
       id="path1990"
       inkscape:connector-curvature="0" />
    <path
       style="opacity:1;vector-effect:none;fill:#ffffff;fill-opacity:1;fill-rule:evenodd;stroke:none;stroke-width:1.05256307;stroke-linecap:round;stroke-linejoin:round;stroke-miterlimit:4;stroke-dasharray:none;stroke-dashoffset:0;stroke-opacity:1;paint-order:stroke fill markers"
       id="path1992"
       sodipodi:type="arc"
       sodipodi:cx="26.511755"
       sodipodi:cy="271.28339"
       sodipodi:rx="19.361002"
       sodipodi:ry="7.7435484"
       sodipodi:start="3.0832247"
       sodipodi:end="0.050599134"
       d="m 7.1837234,271.7351 a 19.361002,7.7435484 0 0 1 9.2802716,-7.07085 19.361002,7.7435484 0 0 1 19.966647,-0.031 19.361002,7.7435484 0 0 1 9.417336,7.04181"
       sodipodi:open="true" />
    <rect
       style="opacity:1;vector-effect:none;fill:#000000;fill-opacity:1;fill-rule:evenodd;stroke:none;stroke-width:0.95249999;stroke-linecap:round;stroke-linejoin:round;stroke-miterlimit:4;stroke-dasharray:none;stroke-dashoffset:0;stroke-opacity:1;paint-order:stroke fill markers"
       id="rect1994"
       width="2.8333173"
       height="1.2142788"
       x="-146.43796"
       y="223.75113"
       ry="0.60713941"
       transform="rotate(-36.62789)"
       inkscape:transform-center-x="-7.1507533"
       inkscape:transform-center-y="26.849055" />
    <rect
       style="opacity:1;vector-effect:none;fill:#000000;fill-opacity:1;fill-rule:evenodd;stroke:none;stroke-width:0.95249999;stroke-linecap:round;stroke-linejoin:round;stroke-miterlimit:4;stroke-dasharray:none;stroke-dashoffset:0;stroke-opacity:1;paint-order:stroke fill markers"
       id="rect1994-0"
       width="2.8333173"
       height="1.2142788"
       x="-138.2285"
       y="228.4252"
       ry="0.60713941"
       transform="rotate(-36.62789)"
       inkscape:transform-center-x="-7.1507533"
       inkscape:transform-center-y="26.849055" />
    <rect
       style="opacity:1;vector-effect:none;fill:#000000;fill-opacity:1;fill-rule:evenodd;stroke:none;stroke-width:0.95249999;stroke-linecap:round;stroke-linejoin:round;stroke-miterlimit:4;stroke-dasharray:none;stroke-dashoffset:0;stroke-opacity:1;paint-order:stroke fill markers"
       id="rect1994-3"
       width="2.8333173"
       height="1.2142788"
       x="-131.93988"
       y="235.11772"
       ry="0.60713941"
       transform="rotate(-36.62789)"
       inkscape:transform-center-x="-7.1507533"
       inkscape:transform-center-y="26.849055" />
    <rect
       style="opacity:1;vector-effect:none;fill:#000000;fill-opacity:1;fill-rule:evenodd;stroke:none;stroke-width:0.95249999;stroke-linecap:round;stroke-linejoin:round;stroke-miterlimit:4;stroke-dasharray:none;stroke-dashoffset:0;stroke-opacity:1;paint-order:stroke fill markers"
       id="rect1994-3-1"
       width="2.8333173"
       height="1.2142788"
       x="-186.93599"
       y="196.24988"
       ry="0.60713941"
       transform="matrix(-0.80252715,-0.59661559,-0.59661559,0.80252715,0,0)"
       inkscape:transform-center-x="7.1507539"
       inkscape:transform-center-y="26.849058" />
    <rect
       style="opacity:1;vector-effect:none;fill:#000000;fill-opacity:1;fill-rule:evenodd;stroke:none;stroke-width:0.95249999;stroke-linecap:round;stroke-linejoin:round;stroke-miterlimit:4;stroke-dasharray:none;stroke-dashoffset:0;stroke-opacity:1;paint-order:stroke fill markers"
       id="rect1994-3-8"
       width="2.8333173"
       height="1.2142788"
       x="-178.81523"
       y="202.28705"
       ry="0.60713941"
       transform="matrix(-0.80252715,-0.59661559,-0.59661559,0.80252715,0,0)"
       inkscape:transform-center-x="7.1507577"
       inkscape:transform-center-y="26.849059" />
    <path
       style="fill:none;fill-rule:evenodd;stroke:#ffffff;stroke-width:0.23098329;stroke-linecap:butt;stroke-linejoin:miter;stroke-miterlimit:4;stroke-dasharray:none;stroke-opacity:1"
       d="m 16.858756,260.31416 c 0,0 3.009772,-1.72395 0.410422,-4.36059 -2.599348,-2.63664 0.820847,-5.37468 0.820847,-5.37468"
       id="path2040"
       inkscape:connector-curvature="0" />
    <path
       style="fill:none;fill-rule:evenodd;stroke:#ffffff;stroke-width:0.23098329;stroke-linecap:butt;stroke-linejoin:miter;stroke-miterlimit:4;stroke-dasharray:none;stroke-opacity:1"
       d="m 25.857738,258.82317 c 0,0 3.009772,-1.72395 0.410422,-4.36059 -2.599348,-2.63664 0.820847,-5.37468 0.820847,-5.37468"
       id="path2040-0"
       inkscape:connector-curvature="0" />
    <path
       style="fill:none;fill-rule:evenodd;stroke:#ffffff;stroke-width:0.23098329;stroke-linecap:butt;stroke-linejoin:miter;stroke-miterlimit:4;stroke-dasharray:none;stroke-opacity:1"
       d="m 35.167209,260.44221 c 0,0 3.009772,-1.72395 0.410422,-4.36059 -2.599348,-2.63664 0.820847,-5.37468 0.820847,-5.37468"
       id="path2040-1"
       inkscape:connector-curvature="0" />
  </g>
</svg>
