<?xml version="1.0" encoding="UTF-8" standalone="no"?>
<!-- Created with Inkscape (http://www.inkscape.org/) -->

<svg
   xmlns:dc="http://purl.org/dc/elements/1.1/"
   xmlns:cc="http://creativecommons.org/ns#"
   xmlns:rdf="http://www.w3.org/1999/02/22-rdf-syntax-ns#"
   xmlns:svg="http://www.w3.org/2000/svg"
   xmlns="http://www.w3.org/2000/svg"
   xmlns:sodipodi="http://sodipodi.sourceforge.net/DTD/sodipodi-0.dtd"
   xmlns:inkscape="http://www.inkscape.org/namespaces/inkscape"
   width="512"
   height="512"
   viewBox="0 0 135.46667 135.46667"
   version="1.1"
   id="svg8"
   inkscape:version="0.92.5 (0.92.5+68)"
   sodipodi:docname="icono.svg"
   inkscape:export-filename="/home/angel/Documentos/Desarrollo/Appuelo/IMGS/ico512.png"
   inkscape:export-xdpi="96"
   inkscape:export-ydpi="96">
  <defs
     id="defs2" />
  <sodipodi:namedview
     id="base"
     pagecolor="#767676"
     bordercolor="#666666"
     borderopacity="1.0"
     inkscape:pageopacity="0"
     inkscape:pageshadow="2"
     inkscape:zoom="0.48245307"
     inkscape:cx="-234.48312"
     inkscape:cy="95.721743"
     inkscape:document-units="mm"
     inkscape:current-layer="layer1"
     showgrid="false"
     units="px"
     inkscape:window-width="1366"
     inkscape:window-height="715"
     inkscape:window-x="0"
     inkscape:window-y="0"
     inkscape:window-maximized="1"
     inkscape:pagecheckerboard="true" />
  <metadata
     id="metadata5">
    <rdf:RDF>
      <cc:Work
         rdf:about="">
        <dc:format>image/svg+xml</dc:format>
        <dc:type
           rdf:resource="http://purl.org/dc/dcmitype/StillImage" />
        <dc:title></dc:title>
      </cc:Work>
    </rdf:RDF>
  </metadata>
  <g
     inkscape:label="Capa 1"
     inkscape:groupmode="layer"
     id="layer1"
     transform="translate(0,-161.53331)">
    <g
       id="g1746"
       transform="matrix(5.5899067,0,0,5.5899067,-3.3670096,-1360.0241)">
      <rect
         y="279.25876"
         x="2.3267174"
         height="4.0342512"
         width="20.680609"
         id="rect1737"
         style="opacity:1;vector-effect:none;fill:#ffffff;fill-opacity:1;fill-rule:evenodd;stroke:none;stroke-width:1.26200008;stroke-linecap:round;stroke-linejoin:round;stroke-miterlimit:4;stroke-dasharray:none;stroke-dashoffset:0;stroke-opacity:1;paint-order:stroke fill markers" />
      <path
         style="fill:#01d9fd;stroke-width:0.06200434"
         d="m 11.326226,295.55462 c -1.371752,-0.14504 -3.0534737,-0.64515 -4.2926957,-1.27658 -2.5156854,-1.28182 -4.6136568,-3.60541 -5.5654774,-6.16399 -0.4429571,-1.19071 -0.61682736,-2.2171 -0.61910982,-3.65474 -0.001802,-1.13522 0.0229035,-1.35014 0.25810672,-2.24528 0.049573,-0.18867 0.1006896,-0.43865 0.1135931,-0.55552 0.043567,-0.3946 0.3441591,-1.2176 0.742457,-2.03279 1.0875011,-2.2258 2.8245587,-3.96396 5.1098387,-5.1131 1.8610976,-0.93584 3.5467764,-1.34107 5.5785874,-1.34107 2.778793,0 5.326715,0.87037 7.551127,2.57947 1.827258,1.40394 3.319629,3.65348 3.874852,5.84078 0.414209,1.63177 0.508758,2.92263 0.315071,4.3016 -0.570857,4.06426 -3.591261,7.63327 -7.626078,9.01122 -1.759624,0.60094 -3.705448,0.83342 -5.440272,0.65 z m 7.20072,-13.53116 c 0.06906,-0.0816 0.15019,-0.1148 0.223251,-0.0913 0.12291,0.0395 0.373724,-0.21884 0.373724,-0.38489 0,-0.10905 -0.336127,-0.4281 -0.583552,-0.5539 -0.143466,-0.0729 -0.218699,-0.078 -0.349078,-0.0233 -0.200872,0.0842 -0.283257,0.3408 -0.15646,0.48734 0.05513,0.0637 0.07097,0.14849 0.04235,0.22655 -0.02516,0.0686 -0.03572,0.15982 -0.02346,0.2027 0.01226,0.0429 0.03529,0.12006 0.05118,0.17151 0.04186,0.13557 0.295637,0.11474 0.42205,-0.0346 z m -15.0676284,-0.0985 c 0.4527326,-0.11888 0.9938421,-0.37074 0.9938421,-0.46257 0,-0.0406 -0.043065,-0.0558 -0.097851,-0.0345 -0.053818,0.0209 -0.2063819,0.0555 -0.3390302,0.077 -0.2116012,0.0342 -0.2411787,0.024 -0.2411787,-0.0833 0,-0.0673 -0.017011,-0.13953 -0.037802,-0.16057 -0.108515,-0.10979 -1.3183187,0.58191 -1.3183187,0.75374 0,0.10368 0.4520982,0.0646 1.0403385,-0.0898 z m 12.9186404,0.0296 c 0.08635,-0.0398 0.157005,-0.0959 0.157005,-0.12474 0,-0.0288 0.06935,-0.0524 0.154104,-0.0524 0.155663,0 0.206018,-0.0849 0.09246,-0.15592 -0.129146,-0.0808 -0.05385,-0.15123 0.123284,-0.11538 0.158279,0.032 0.184926,0.0186 0.184926,-0.0929 0,-0.16167 -0.171344,-0.25947 -0.454624,-0.25947 -0.118889,0 -0.233305,-0.0281 -0.254258,-0.0624 -0.06771,-0.11085 -0.13787,-0.0665 -0.17275,0.10914 -0.02501,0.12596 -0.10414,0.20465 -0.297919,0.29625 -0.145126,0.0686 -0.273747,0.15823 -0.285827,0.19915 -0.02152,0.0729 0.376223,0.3228 0.522439,0.32823 0.04078,0.002 0.144804,-0.0298 0.231157,-0.0696 z m -0.800706,-0.39638 c 0.193354,-0.19564 0.299934,-0.3683 0.348978,-0.56537 0.09,-0.36163 0.02046,-0.45054 -0.244109,-0.31211 -0.103921,0.0544 -0.246179,0.0989 -0.316129,0.0989 -0.06995,0 -0.18057,0.0337 -0.245824,0.075 -0.09312,0.0588 -0.150464,0.0577 -0.266544,-0.005 -0.08135,-0.044 -0.228686,-0.0708 -0.327424,-0.0594 -0.174971,0.0202 -0.17898,0.0286 -0.158098,0.33256 0.01178,0.17151 0.04825,0.3218 0.08104,0.33398 0.03279,0.0122 0.08416,0.0875 0.114171,0.16733 0.05279,0.14048 0.147642,0.17312 0.5985,0.20595 0.08857,0.006 0.235565,-0.0897 0.415443,-0.27167 z m -5.268117,-0.0592 c 0,-0.19584 0.168763,-0.28779 0.444979,-0.24244 0.182037,0.0299 0.241172,0.008 0.378498,-0.14217 0.205366,-0.22409 0.347719,-0.52461 0.347719,-0.73406 0,-0.25344 -0.169915,-0.19669 -0.314861,0.10517 l -0.128333,0.26727 -0.410232,0.0117 c -0.335808,0.01 -0.429802,0.0359 -0.518106,0.14504 -0.1204744,0.1489 -0.1410239,0.43925 -0.04406,0.62256 0.09169,0.17334 0.244398,0.15266 0.244398,-0.0331 z m 3.667691,-0.28371 v -0.40454 l -0.215747,-0.0145 c -0.60221,-0.0403 -1.302379,-0.0503 -1.351952,-0.0193 -0.140658,0.088 -0.07053,0.19811 0.252276,0.39627 0.1919,0.1178 0.472478,0.23294 0.623507,0.25585 0.151028,0.0229 0.326886,0.0821 0.390794,0.13157 0.227684,0.17617 0.301122,0.0919 0.301122,-0.34535 z m -2.126644,-0.0635 c 0,-0.0747 -0.173868,-0.15476 -0.224577,-0.10345 -0.05398,0.0546 0.03758,0.16777 0.135752,0.16777 0.04885,0 0.08882,-0.0289 0.08882,-0.0643 z m -6.2392463,-0.17552 c 0.017665,-0.0537 -0.011974,-0.0761 -0.082247,-0.0624 -0.060425,0.0119 -0.1222923,0.0593 -0.137482,0.10547 -0.017665,0.0537 0.011974,0.0761 0.082247,0.0624 0.060425,-0.0118 0.1222924,-0.0593 0.137482,-0.10547 z m 10.9089253,-0.2747 c -0.02938,-0.0903 -0.293107,-0.14562 -0.293107,-0.0615 0,0.0891 0.0724,0.13947 0.200336,0.13947 0.06696,0 0.107152,-0.0338 0.09277,-0.078 z m 0.911443,0.0114 c 0.02235,-0.0366 0.02795,-0.0793 0.01246,-0.095 -0.04299,-0.0435 -0.230742,0.0426 -0.230742,0.10584 0,0.0781 0.169103,0.0697 0.218281,-0.0108 z"
         id="path1702"
         inkscape:connector-curvature="0" />
      <path
         style="fill:#0068d2;stroke-width:0.06200434"
         d="m 11.480331,295.18677 c 0,-0.0343 0.02774,-0.0624 0.06164,-0.0624 0.0339,0 0.06164,0.0281 0.06164,0.0624 0,0.0343 -0.02774,0.0624 -0.06164,0.0624 -0.0339,0 -0.06164,-0.0281 -0.06164,-0.0624 z m -2.6197786,-0.49895 c 0.020953,-0.0343 0.0903,-0.0624 0.1541046,-0.0624 0.063804,0 0.1331514,0.0281 0.1541047,0.0624 0.022287,0.0365 -0.041667,0.0624 -0.1541047,0.0624 -0.1124378,0 -0.1763912,-0.0259 -0.1541046,-0.0624 z m 0.2219834,-0.17126 c -0.2754417,-0.0331 -0.5381556,-0.20201 -0.4259976,-0.27398 0.1138993,-0.0731 0.4419752,-0.066 0.6469047,0.014 0.095441,0.0373 0.2595955,0.0681 0.3647898,0.0686 0.1875028,8.5e-4 0.3882523,0.0811 0.3309088,0.13226 -0.049289,0.044 -0.695346,0.0856 -0.9166057,0.0591 z m 5.0792152,-0.20296 c -0.02095,-0.0343 0.01902,-0.0624 0.08882,-0.0624 0.06981,0 0.126922,0.0281 0.126922,0.0624 0,0.0343 -0.03997,0.0624 -0.08882,0.0624 -0.04885,0 -0.105968,-0.0281 -0.126922,-0.0624 z m 3.467355,-0.10638 c 0.07628,-0.0149 0.201106,-0.0149 0.277388,0 0.07628,0.0149 0.01387,0.027 -0.138694,0.027 -0.152564,0 -0.214976,-0.0122 -0.138694,-0.027 z m -6.30288,-0.12993 c -0.348075,-0.0428 -0.314081,-0.1379 0.04931,-0.1379 0.193247,0 0.351358,0.013 0.351358,0.029 0,0.0676 -0.229559,0.12997 -0.400672,0.10891 z m -3.2978387,-0.0755 c -0.065107,-0.0426 0.026079,-0.0615 0.3082093,-0.0639 0.2203696,-0.002 0.6147604,-0.0196 0.8764233,-0.0395 0.5396621,-0.0409 0.9878831,0.016 0.8452831,0.10729 -0.1186347,0.076 -1.9130372,0.0724 -2.0299157,-0.004 z m 9.0110887,-0.006 c -0.180208,-0.0239 -0.339415,-0.0554 -0.353794,-0.07 -0.01438,-0.0145 0.0078,-0.0992 0.04923,-0.18806 0.06263,-0.13427 0.131157,-0.16865 0.405216,-0.2033 0.341213,-0.0431 0.421559,-0.0234 0.354064,0.0871 -0.02166,0.0355 -0.118775,0.0484 -0.215808,0.0288 -0.09703,-0.0196 -0.227717,-0.006 -0.290409,0.0313 -0.09148,0.0538 -0.04097,0.0694 0.255867,0.0792 0.203418,0.007 0.494676,0.007 0.64724,3.1e-4 0.300637,-0.0128 0.502365,0.0722 0.400156,0.16847 -0.08357,0.0788 -0.851198,0.11929 -1.251764,0.0661 z m -9.6737386,-0.0368 c 0.05933,-0.0157 0.1564162,-0.0157 0.2157465,0 0.05933,0.0157 0.010787,0.0285 -0.1078733,0.0285 -0.1186605,0 -0.1672035,-0.0128 -0.1078732,-0.0285 z m -0.9531769,-0.17614 c -0.158409,-0.0774 -0.3626914,-0.20007 -0.4539611,-0.27271 -0.09127,-0.0726 -0.199513,-0.13207 -0.2405408,-0.13207 -0.041028,0 -0.1273728,-0.059 -0.1918776,-0.13112 -0.064505,-0.0721 -0.2005635,-0.17469 -0.3023525,-0.22793 -0.2915613,-0.1525 -0.5957681,-0.42139 -0.8622875,-0.76218 -0.1351479,-0.17282 -0.2935046,-0.32955 -0.3519038,-0.3483 -0.1135572,-0.0365 -0.7276727,-0.7484 -0.7276727,-0.84358 0,-0.0313 0.1248248,-0.0569 0.2773883,-0.0569 0.1525636,0 0.2773884,-0.0281 0.2773884,-0.0624 0,-0.0343 -0.076282,-0.0628 -0.1695151,-0.0633 -0.4486012,-0.002 -0.9654871,-0.35489 -0.8988265,-0.61281 0.018972,-0.0734 -0.020927,-0.1688 -0.1029216,-0.24609 l -0.1339038,-0.12622 0.1440382,-0.0448 c 0.079221,-0.0247 0.1936617,-0.0975 0.2543127,-0.16184 0.060651,-0.0643 0.178541,-0.117 0.2619779,-0.117 0.083437,0 0.1517034,-0.0281 0.1517034,-0.0624 0,-0.0677 -0.1198118,-0.0888 -0.3852616,-0.0678 -0.2206207,0.0174 -0.2155702,-0.0649 0.012337,-0.20112 0.2898234,-0.17322 3.4778924,-0.30414 3.9649068,-0.16282 0.1089982,0.0316 0.3735527,0.0575 0.5878993,0.0575 0.2143466,0 0.4364404,0.0248 0.4935417,0.0551 0.057101,0.0303 0.2258847,0.0756 0.3750741,0.10062 0.2367084,0.0397 0.2662971,0.0324 0.2323343,-0.0571 -0.060172,-0.15865 0.2325451,-0.24053 0.7303277,-0.20429 0.2379136,0.0173 0.5372106,0.082 0.6651033,0.14368 0.20048,0.0967 0.259812,0.10118 0.430416,0.0323 0.108834,-0.044 0.467474,-0.0951 0.796976,-0.1137 0.546152,-0.0308 0.634731,-0.0193 1.002329,0.12959 0.221778,0.0898 0.480293,0.16333 0.574476,0.16333 0.09418,0 0.28006,0.0561 0.413058,0.12473 0.132997,0.0686 0.291426,0.12474 0.352063,0.12474 0.06735,0 0.11025,0.0463 0.11025,0.1189 0,0.10723 -0.02133,0.11228 -0.217265,0.0514 -0.228241,-0.0709 -0.39293,3.2e-4 -0.311,0.13446 0.04774,0.0781 0.613204,0.25653 0.813204,0.25653 0.204183,0 0.238948,-0.11323 0.06008,-0.19569 -0.171042,-0.0788 -0.159478,-0.12525 0.113876,-0.45692 l 0.152346,-0.18485 0.156693,0.14894 c 0.08618,0.0819 0.156693,0.20019 0.156693,0.26281 0,0.0626 0.03285,0.11387 0.073,0.11387 0.147887,0 0.605059,-0.26339 0.605059,-0.3486 0,-0.0484 0.03699,-0.088 0.08219,-0.088 0.126653,0 0.170338,0.0735 0.09689,0.16305 -0.09495,0.11576 -0.01402,0.21119 0.178995,0.21104 0.142487,-1.2e-4 0.167832,-0.0282 0.179737,-0.1991 0.01444,-0.20728 0.269689,-0.48202 0.448454,-0.48269 0.07128,-2.5e-4 0.06745,0.0144 -0.01671,0.064 -0.157206,0.0926 -0.07182,0.18138 0.174449,0.18138 0.147446,0 0.212109,-0.0285 0.212109,-0.0936 0,-0.0514 -0.03467,-0.0969 -0.07705,-0.10093 -0.04238,-0.004 0.0062,-0.0271 0.107873,-0.0512 0.219677,-0.0521 0.423779,0.0872 0.379416,0.25883 -0.01739,0.0673 0.0048,0.11159 0.05597,0.11159 0.08402,0 0.503869,-0.21621 0.601653,-0.30984 0.02792,-0.0267 0.15275,7.4e-4 0.277388,0.061 0.166404,0.0805 0.341266,0.10436 0.65811,0.0897 0.237321,-0.011 0.475252,-0.0369 0.528736,-0.0577 0.05348,-0.0208 0.173702,-0.008 0.267151,0.0276 0.09345,0.036 0.199199,0.047 0.235,0.0247 0.09338,-0.0584 0.761291,-0.0296 0.94406,0.0407 0.126168,0.0485 0.14742,0.0881 0.115759,0.21579 -0.04511,0.18185 0.105892,0.27992 0.24768,0.16086 0.133134,-0.11179 0.676431,-0.0587 0.700273,0.0685 0.01972,0.10517 -0.442267,0.36439 -0.804142,0.4512 -0.09323,0.0224 -0.169515,0.0715 -0.169515,0.10912 0,0.0436 0.06143,0.0527 0.169515,0.0249 0.09323,-0.0239 0.342057,-0.0629 0.55294,-0.0865 0.210885,-0.0236 0.417539,-0.0775 0.459232,-0.11968 0.04169,-0.0422 0.104933,-0.0763 0.140531,-0.0757 0.0356,5e-4 0.02312,0.0282 -0.02774,0.0614 -0.08603,0.0562 -0.07696,0.0624 0.09246,0.0624 0.01695,0 0.03455,-0.0211 0.03911,-0.0468 0.01508,-0.0851 0.237363,-0.21063 0.301753,-0.17037 0.03479,0.0218 0.115571,-0.0257 0.179512,-0.10553 0.06394,-0.0798 0.132633,-0.12859 0.15265,-0.10843 0.04852,0.0489 -0.135724,0.41698 -0.238802,0.47714 -0.0448,0.0261 -0.09147,0.1005 -0.103729,0.16525 -0.01575,0.0832 -0.116532,0.14209 -0.343882,0.20089 -0.429743,0.11115 -2.100134,0.35182 -2.164114,0.31182 -0.02787,-0.0174 -0.291007,-0.0619 -0.584759,-0.0988 -0.315475,-0.0397 -0.618687,-0.11765 -0.74076,-0.19053 l -0.206668,-0.12337 -0.116922,0.13072 c -0.102814,0.11495 -0.176517,0.12885 -0.610828,0.11524 -0.513043,-0.0161 -0.99786,0.0457 -1.051776,0.13391 -0.01715,0.0281 0.02768,0.0829 0.09962,0.12188 l 0.130805,0.0708 -0.139823,0.15059 c -0.09983,0.10752 -0.206238,0.15059 -0.372008,0.15059 -0.254897,0 -0.313955,-0.0576 -0.344042,-0.3357 -0.02631,-0.24314 -0.02998,-0.24556 -0.396858,-0.26224 -0.320673,-0.0146 -0.535593,-0.14166 -0.457044,-0.27026 0.02331,-0.0382 0.06845,-0.0531 0.100309,-0.0331 0.106087,0.0663 0.295327,-0.0383 0.314903,-0.1741 0.01743,-0.12091 0.06152,-0.13536 0.450809,-0.14776 0.530301,-0.0169 0.512759,-0.0131 0.400672,-0.0874 -0.05085,-0.0337 -0.164325,-0.0461 -0.252156,-0.0275 -0.09863,0.0209 -0.187614,-1.8e-4 -0.23271,-0.0552 -0.09981,-0.12168 -0.856495,-0.0658 -1.015516,0.0749 -0.10455,0.0926 -0.119576,0.0919 -0.191721,-0.008 -0.08663,-0.11987 -0.202668,-0.13645 -0.33999,-0.0486 -0.07217,0.0462 -0.05503,0.0714 0.0851,0.12533 0.238,0.0916 0.537291,0.31259 0.501845,0.37062 -0.01586,0.026 -0.106336,0.0361 -0.201061,0.0225 -0.09473,-0.0136 -0.227707,0.0169 -0.295513,0.0679 -0.117119,0.088 -0.108642,0.0963 0.169515,0.16728 0.161039,0.0411 0.292799,0.0938 0.292799,0.11717 0,0.0871 -0.152276,0.19218 -0.278601,0.19218 -0.162549,0 -0.409065,0.27631 -0.360577,0.40416 0.02348,0.0619 -4.31e-4,0.0948 -0.06888,0.0948 -0.05766,0 -0.117601,-0.0494 -0.133211,-0.10982 -0.02397,-0.0927 -0.111833,-0.1121 -0.564417,-0.12446 -0.294818,-0.008 -0.757944,0.0157 -1.029168,0.0528 -0.271224,0.0371 -1.565734,0.0789 -2.8766885,0.0929 -1.3423063,0.0143 -2.4530888,0.0522 -2.5427266,0.0867 -0.087544,0.0337 -0.1591716,0.1011 -0.1591716,0.14984 0,0.13087 0.8515397,0.19423 1.357808,0.10103 0.2194419,-0.0404 0.5931568,-0.0681 0.8304779,-0.0616 0.2373211,0.007 0.5741255,0.009 0.7484542,0.005 0.1743286,-0.004 0.5014696,0.0197 0.7269786,0.052 0.3245,0.0465 0.455698,0.0394 0.629033,-0.0338 0.177747,-0.0751 0.3021,-0.0805 0.659962,-0.0286 0.242521,0.0352 0.551903,0.0608 0.687515,0.057 0.535463,-0.0153 1.140374,0.0218 1.140374,0.0699 0,0.0279 -0.187237,0.0708 -0.416082,0.0953 -0.228845,0.0245 -0.447953,0.071 -0.486907,0.10322 -0.03895,0.0323 -0.525665,0.0682 -1.081583,0.0799 -0.931493,0.0196 -1.034706,0.0335 -1.316118,0.17665 -0.291004,0.14806 -0.347374,0.15434 -1.199164,0.13355 -1.2721628,-0.031 -1.2466739,-0.033 -1.3711602,0.10225 -0.062176,0.0675 -0.1790135,0.12277 -0.2596398,0.12277 -0.2260062,0 -0.7115905,0.23257 -0.7115905,0.34081 0,0.0527 -0.04993,0.0958 -0.1109553,0.0958 -0.1115539,0 -0.2588958,0.11083 -0.2588958,0.19475 0,0.0248 0.094633,0.0766 0.2102955,0.11528 0.2630356,0.0878 0.3162319,0.21481 0.13917,0.33219 -0.1222037,0.081 -0.1658838,0.0758 -0.424246,-0.0503 z m -1.1878829,-1.8409 c 0.021999,-0.036 -0.077293,-0.0607 -0.2439242,-0.0607 -0.1545644,0 -0.2808825,0.0211 -0.2807069,0.0468 4.808e-4,0.0708 0.4820725,0.0836 0.5246311,0.014 z m 1.7188402,-0.87374 c 0.7432763,-0.0713 1.0782061,-0.18023 0.5609138,-0.1824 -0.1695151,-7.1e-4 -0.5717282,-0.033 -0.8938069,-0.0718 -0.4369621,-0.0526 -0.6303243,-0.0525 -0.7618126,4.4e-4 -0.1430084,0.0576 -0.1624864,0.0877 -0.1033624,0.15977 0.040069,0.0489 0.1471046,0.10031 0.2378569,0.11436 0.090752,0.014 0.192743,0.0297 0.226646,0.0348 0.033903,0.005 0.3640075,-0.0197 0.7335652,-0.0552 z M 5.42686,291.00111 c -0.027438,-0.0833 -0.9120584,-0.13878 -0.9120584,-0.0572 0,0.0731 0.1422568,0.10176 0.5754647,0.11577 0.2434383,0.008 0.3522432,-0.0111 0.3365937,-0.0586 z m 8.637874,-0.081 c 0.05157,-0.0629 0.05296,-0.10003 0.0048,-0.13011 -0.08176,-0.0511 -0.259104,0.0852 -0.211723,0.16281 0.04885,0.08 0.124227,0.0681 0.206875,-0.0327 z m 6.81598,-0.84754 c 0.02095,-0.0343 -0.0068,-0.0624 -0.06164,-0.0624 -0.05486,0 -0.08259,0.0281 -0.06164,0.0624 0.02095,0.0343 0.04869,0.0624 0.06164,0.0624 0.01295,0 0.04069,-0.0281 0.06164,-0.0624 z m -8.301152,3.71091 c -0.01698,-0.0172 -0.229642,-0.0343 -0.472588,-0.038 -0.242944,-0.004 -0.441718,-0.0282 -0.441718,-0.0543 0,-0.0652 0.888383,-0.112 1.264956,-0.0667 l 0.306912,0.0369 -0.209535,0.0767 c -0.219588,0.0803 -0.39586,0.0982 -0.448027,0.0454 z m 1.582189,-0.0253 -0.184925,-0.0418 0.154104,-0.0435 c 0.233871,-0.0661 0.30821,-0.0544 0.30821,0.0483 0,0.0514 -0.0208,0.0902 -0.04623,0.0862 -0.02543,-0.004 -0.129448,-0.0262 -0.231157,-0.0492 z m -0.597155,-0.11079 c 0.0445,-0.018 0.09766,-0.0158 0.118147,0.005 0.02048,0.0207 -0.01593,0.0355 -0.0809,0.0328 -0.07181,-0.003 -0.08642,-0.0178 -0.03724,-0.0377 z m 4.557645,-0.005 c -0.05933,-0.0131 -0.107874,-0.0468 -0.107874,-0.0748 0,-0.0836 0.302157,-0.1346 0.419953,-0.0708 0.06007,0.0325 0.288344,0.0437 0.507281,0.0249 0.292019,-0.0251 0.380914,-0.0156 0.333681,0.0356 -0.06274,0.068 -0.937717,0.13256 -1.153041,0.0851 z m -9.115439,-0.12617 c -0.2659643,-0.0726 -0.2734605,-0.0816 -0.1466491,-0.17597 0.099318,-0.0739 0.2529992,-0.0833 0.8013442,-0.049 0.3731529,0.0234 0.7339369,0.0635 0.8017429,0.0892 0.114722,0.0435 0.112582,0.0492 -0.03082,0.0819 -0.189978,0.0433 -1.3094196,0.0856 -1.425617,0.0539 z m 8.741333,-0.10317 c -0.106914,-0.082 -0.105909,-0.088 0.02162,-0.12895 0.148165,-0.0476 0.281708,0.0454 0.217115,0.15112 -0.05353,0.0876 -0.101375,0.0832 -0.238731,-0.0222 z m -3.648025,-0.0971 c -0.06638,-0.10867 0.03201,-0.20138 0.128093,-0.1207 0.04746,0.0399 0.07109,0.0974 0.05251,0.12777 -0.04497,0.0736 -0.13344,0.0702 -0.180608,-0.007 z m -0.523956,-0.18711 c 0,-0.0343 0.02774,-0.0624 0.06164,-0.0624 0.0339,0 0.06164,0.0281 0.06164,0.0624 0,0.0343 -0.02774,0.0624 -0.06164,0.0624 -0.0339,0 -0.06164,-0.0281 -0.06164,-0.0624 z m -2.219107,-0.17654 c 0.05086,-0.0329 0.229231,-0.0783 0.396391,-0.10086 0.16716,-0.0225 0.322572,-0.0527 0.34536,-0.0669 0.02279,-0.0142 0.09406,0.0144 0.158385,0.0637 0.111323,0.0853 0.109228,0.0897 -0.04352,0.0916 -0.08826,10e-4 -0.33791,0.0178 -0.554777,0.0372 -0.262923,0.0235 -0.363495,0.0153 -0.301841,-0.0247 z m 6.780604,0.006 c -0.697421,-0.0471 -0.728879,-0.20414 -0.0409,-0.20414 0.307507,0 0.488316,-0.0307 0.58531,-0.0995 0.0789,-0.0559 0.199828,-0.0844 0.276205,-0.065 0.140075,0.0356 0.343273,-0.0458 0.249287,-0.0998 -0.138018,-0.0793 -0.4115,-0.10874 -0.47959,-0.0516 -0.04519,0.038 -0.148911,0.0438 -0.256081,0.0145 -0.09907,-0.0271 -0.402038,-0.0276 -0.673262,-0.001 -0.271224,0.0264 -0.653808,0.0477 -0.850186,0.0472 -0.426456,-0.001 -0.598398,0.046 -0.598398,0.16377 0,0.0479 -0.05738,0.11823 -0.127516,0.1562 -0.107197,0.0581 -0.151811,0.0425 -0.27998,-0.0974 -0.121192,-0.13231 -0.137543,-0.18464 -0.07972,-0.25513 0.05706,-0.0696 0.04967,-0.11447 -0.03427,-0.20832 -0.150112,-0.16783 -0.06692,-0.2574 0.233647,-0.25158 0.141361,0.003 0.531481,-0.009 0.866934,-0.0266 0.511896,-0.0265 0.632444,-0.053 0.750101,-0.16485 0.110258,-0.10481 0.203762,-0.12965 0.437996,-0.11637 0.469629,0.0266 0.756405,-0.0845 0.759182,-0.29426 8.69e-4,-0.0655 -0.397878,-0.0693 -0.923685,-0.009 -0.114755,0.0132 -0.158647,-0.0144 -0.171896,-0.1079 -0.01733,-0.12237 0.01293,-0.12546 1.171195,-0.11944 1.198178,0.006 1.528018,0.0573 1.528018,0.23684 0,0.10889 0.132599,0.16414 0.393932,0.16414 0.109407,0 0.250613,0.0382 0.313789,0.085 0.111844,0.0828 0.111692,0.0905 -0.0058,0.29395 -0.123223,0.21348 -0.27893,0.28989 -0.613134,0.30091 -0.103705,0.003 -0.242399,0.0462 -0.308209,0.0951 -0.115568,0.0859 -0.113864,0.0911 0.04986,0.15438 0.09323,0.036 0.169515,0.0922 0.169515,0.12483 0,0.0326 -0.151255,0.1294 -0.336122,0.21504 -0.300221,0.13906 -0.410502,0.15478 -1.032501,0.14719 -0.383011,-0.005 -0.821206,-0.0169 -0.97377,-0.0272 z m 0.493135,-0.83348 c 0.07394,-0.0423 0.06715,-0.0533 -0.0339,-0.0548 -0.0695,-10e-4 -0.157788,-0.0337 -0.196193,-0.0726 -0.0384,-0.0389 -0.114496,-0.0533 -0.169091,-0.0321 -0.07968,0.0309 -0.08584,0.0639 -0.03121,0.1672 0.06829,0.12911 0.195352,0.12683 0.430397,-0.008 z m -5.671051,0.76075 c 0,-0.0732 0.18026,-0.14169 0.253136,-0.0961 0.0314,0.0196 0.04113,0.0618 0.02162,0.0938 -0.04533,0.0742 -0.274756,0.0762 -0.274756,0.002 z m 3.686954,-0.0493 c 0.0445,-0.018 0.09766,-0.0158 0.118147,0.005 0.02048,0.0207 -0.01592,0.0355 -0.0809,0.0328 -0.07181,-0.003 -0.08642,-0.0178 -0.03724,-0.0377 z m -2.657312,-0.0886 c 0.04876,-0.0493 0.100276,-0.0499 0.181844,-0.002 0.09978,0.0587 0.09138,0.0672 -0.06803,0.0688 -0.132612,0.001 -0.163426,-0.0167 -0.113815,-0.0669 z m -1.122105,-0.0559 c -0.02095,-0.0343 -0.0087,-0.0624 0.02718,-0.0624 0.0359,0 0.06528,0.0281 0.06528,0.0624 0,0.0343 -0.01223,0.0624 -0.02718,0.0624 -0.01495,0 -0.04433,-0.0281 -0.06528,-0.0624 z m 2.249928,-0.0624 c 0,-0.0343 0.02774,-0.0624 0.06164,-0.0624 0.0339,0 0.06164,0.0281 0.06164,0.0624 0,0.0343 -0.02774,0.0624 -0.06164,0.0624 -0.0339,0 -0.06164,-0.0281 -0.06164,-0.0624 z m -0.940928,-0.34913 c -0.02027,-0.0205 -0.02141,-0.078 -0.0025,-0.12773 0.01887,-0.0498 -0.01768,-0.12892 -0.08123,-0.17593 -0.109529,-0.081 -0.106911,-0.0877 0.05041,-0.12761 0.221275,-0.0562 0.328143,0.0115 0.222173,0.14066 -0.04402,0.0537 -0.07137,0.1494 -0.06076,0.21274 0.01863,0.11126 -0.05238,0.15444 -0.128052,0.0779 z m 7.318325,-0.84003 c -0.02235,-0.0366 -0.03092,-0.0717 -0.01905,-0.078 0.01187,-0.006 0.08271,-0.046 0.15742,-0.0881 0.177565,-0.10024 0.271181,0.0281 0.108367,0.14852 -0.137152,0.10147 -0.19306,0.10545 -0.246739,0.0176 z M 2.3595055,289.64003 c -0.088693,-0.16768 -0.081375,-0.19121 0.059473,-0.19121 0.090408,0 0.1232837,0.0416 0.1232837,0.15593 0,0.1857 -0.093634,0.20377 -0.1827567,0.0353 z m 20.3768065,0.006 c -0.01968,-0.0322 0.02097,-0.0736 0.09033,-0.0919 0.07679,-0.0203 0.117201,-0.006 0.103327,0.0358 -0.03091,0.0938 -0.149625,0.12825 -0.19366,0.0562 z m -16.6496431,-0.8645 c -0.067806,-0.0111 -1.0514479,-0.0268 -2.1858708,-0.035 l -2.0625872,-0.0149 -0.1351626,-0.20299 c -0.1850967,-0.27799 -0.5565629,-1.48492 -0.6669608,-2.16703 -0.17070698,-1.05473 -0.21680949,-2.12037 -0.12142139,-2.8066 0.047682,-0.34303 0.0976975,-0.70789 0.11114559,-0.8108 0.064793,-0.49581 0.1488921,-0.84644 0.2253939,-0.9397 0.1216035,-0.14825 0.5799634,-0.0891 0.9016222,0.11638 0.2062535,0.13175 0.3295147,0.16367 0.6164186,0.15963 0.4709867,-0.007 1.5017334,-0.37593 1.8042583,-0.64641 0.2688088,-0.24034 0.521846,-0.3429 0.80205,-0.32507 0.1605271,0.0102 0.2190138,-0.0135 0.2356768,-0.0956 0.016884,-0.0831 -0.019289,-0.10961 -0.1518718,-0.11111 l -0.1740349,-0.002 0.1729525,-0.15395 c 0.2904248,-0.25852 0.7151867,-0.14787 0.5060238,0.13182 -0.049202,0.0658 -0.09034,0.14067 -0.091418,0.1664 -0.00298,0.0712 0.2976915,0.0558 0.4425712,-0.0226 0.07052,-0.0382 0.2761061,-0.074 0.4568591,-0.0797 0.180753,-0.006 0.3625595,-0.0446 0.4040143,-0.0865 0.1009502,-0.10214 0.2042466,-0.0961 0.2972832,0.0173 0.042206,0.0515 0.1530697,0.0936 0.2463653,0.0936 0.093295,0 0.287558,0.0421 0.4316951,0.0935 0.3696866,0.13197 0.4314856,0.12081 0.4315411,-0.078 3.02e-5,-0.10766 0.080347,-0.2628 0.2157465,-0.41673 0.1186341,-0.13486 0.2156984,-0.28221 0.2156984,-0.32743 0,-0.0452 0.042137,-0.0822 0.093637,-0.0822 0.069099,0 0.083502,0.0409 0.054959,0.15592 -0.03006,0.12119 -0.014986,0.15593 0.067657,0.15593 0.075987,0 0.097133,-0.0356 0.074095,-0.12474 -0.045937,-0.17774 0.1051671,-0.1584 0.2265178,0.029 0.054754,0.0846 0.099552,0.22322 0.099552,0.30816 0,0.20048 0.1099117,0.26651 0.2109341,0.12673 0.048838,-0.0676 0.1193361,-0.0944 0.1829798,-0.0697 0.09453,0.0367 0.09534,0.0562 0.0093,0.22463 -0.079045,0.15465 -0.081879,0.22265 -0.01757,0.42125 0.09524,0.29411 0.274784,0.35442 0.303401,0.10192 0.01896,-0.16731 0.03451,-0.17522 0.344241,-0.17522 0.285504,0 0.34263,-0.0224 0.476611,-0.18711 0.08372,-0.10291 0.199674,-0.29235 0.257666,-0.42099 0.112161,-0.24879 0.204386,-0.30465 0.205942,-0.12474 4.93e-4,0.06 0.02635,0.14978 0.05741,0.19945 0.04472,0.0715 0.07276,0.052 0.134821,-0.0936 0.0431,-0.10112 0.08672,-0.19565 0.09694,-0.21008 0.01022,-0.0144 0.08782,0.0396 0.172444,0.12001 0.183305,0.17424 0.218264,0.4789 0.04599,0.40079 -0.208434,-0.0945 -0.534963,-0.0659 -0.557441,0.0489 -0.02576,0.13152 0.257951,0.22052 0.378988,0.11888 0.04506,-0.0378 0.09659,-0.0539 0.114517,-0.0358 0.01793,0.0181 0.1058,-7.7e-4 0.195274,-0.042 0.138858,-0.064 0.182901,-0.0573 0.300764,0.0456 0.350876,0.30635 0.531522,0.39732 0.715142,0.36017 0.129752,-0.0263 0.259002,0.006 0.440723,0.10906 0.254954,0.14499 0.257885,0.14518 0.346497,0.0226 0.06551,-0.0906 0.07857,-0.21112 0.04891,-0.45126 -0.02561,-0.20738 -0.01744,-0.32761 0.02226,-0.32761 0.09763,0 0.184426,0.321 0.150335,0.55601 -0.02639,0.18194 -0.01554,0.20639 0.07581,0.17092 0.07528,-0.0292 0.116154,-0.004 0.139089,0.0843 0.01875,0.0725 0.101056,0.13955 0.194631,0.15848 0.397378,0.0804 0.470359,0.12375 0.470359,0.27951 0,0.11431 0.03743,0.15945 0.144976,0.17485 0.137707,0.0197 0.142821,0.008 0.102014,-0.23652 -0.04015,-0.24045 -0.02789,-0.27166 0.187379,-0.47708 0.227259,-0.21686 0.459438,-0.59832 0.459438,-0.75483 0,-0.10426 0.03446,-0.10153 0.318317,0.0252 0.305,0.13615 0.302782,0.21849 -0.0045,0.16877 -0.240108,-0.0388 -0.240969,-0.0382 -0.231157,0.16376 0.0086,0.17757 -0.01573,0.21166 -0.196044,0.27435 -0.216154,0.0752 -0.348694,0.23948 -0.29895,0.37064 0.01619,0.0427 0.141888,0.11514 0.279338,0.16104 0.203313,0.0679 0.284987,0.0687 0.438043,0.005 0.103474,-0.0434 0.188134,-0.10574 0.188134,-0.13861 0,-0.0343 0.08104,-0.0418 0.19056,-0.0174 0.156143,0.0347 0.222207,0.0117 0.365796,-0.12752 l 0.175237,-0.16987 -0.150823,-0.24174 c -0.08295,-0.13295 -0.123734,-0.24173 -0.09063,-0.24173 0.07883,0 0.375991,0.44334 0.338404,0.50488 -0.01594,0.0261 0.02692,0.0654 0.09525,0.0874 0.06833,0.0219 0.15293,0.0941 0.18799,0.16041 0.03506,0.0663 0.105063,0.12051 0.155564,0.12051 0.0505,0 0.117555,0.0685 0.149009,0.15219 0.04644,0.12359 0.106981,0.15583 0.322094,0.17152 0.211065,0.0154 0.263063,0.0421 0.25584,0.13152 -0.01167,0.14444 0.125387,0.10091 0.154092,-0.0489 0.01196,-0.0624 -0.02271,-0.13868 -0.07705,-0.16945 -0.05434,-0.0308 -0.0988,-0.0796 -0.0988,-0.10854 0,-0.0914 0.203789,-0.13597 0.253041,-0.0553 0.07935,0.12991 0.350641,-0.0617 0.402871,-0.2846 0.02498,-0.10657 0.03828,-0.23183 0.02958,-0.27834 -0.0364,-0.19445 0.151463,-0.0115 0.203781,0.19846 0.03141,0.12603 0.08457,0.22914 0.118147,0.22914 0.03357,0 0.04279,-0.0185 0.02048,-0.041 -0.04667,-0.0472 0.07001,-0.20843 0.150844,-0.20843 0.02975,0 0.05553,0.0351 0.05728,0.078 0.0052,0.12673 0.490217,0.48336 0.657406,0.48336 0.137097,0 0.149453,0.0188 0.111864,0.17035 -0.05036,0.20302 -0.04924,0.19174 -0.04005,0.40236 0.0049,0.1113 0.05065,0.18123 0.136788,0.20889 0.194446,0.0624 0.280394,-0.0593 0.178243,-0.25237 -0.076,-0.14368 -0.07095,-0.17284 0.05142,-0.29665 0.114207,-0.11555 0.152651,-0.1248 0.242717,-0.0584 0.05886,0.0434 0.286487,0.16538 0.505838,0.27105 0.219351,0.10566 0.427392,0.22777 0.462314,0.27135 0.08569,0.10693 0.38563,0.17231 0.433204,0.0944 0.02103,-0.0344 0.145626,-0.0626 0.276879,-0.0626 0.199591,0 0.241865,0.0227 0.25834,0.13859 0.02769,0.19486 0.441189,0.27224 0.932348,0.17447 0.265865,-0.0529 0.384983,-0.0542 0.434042,-0.005 0.100007,0.10118 0.127947,1.63393 0.04347,2.3845 -0.120852,1.07371 -0.447066,2.2802 -0.778997,2.8811 l -0.159387,0.28854 -1.797754,0.006 c -0.988765,0.003 -2.740874,-0.002 -3.893577,-0.0114 -2.012871,-0.0166 -5.62968,-0.006 -9.6777704,0.0283 -1.0509936,0.009 -1.9663752,0.007 -2.0341812,-0.004 z M 19.43213,282.68179 c 0,-0.0514 -0.0109,-0.0935 -0.02423,-0.0935 -0.01332,0 -0.04019,0.0421 -0.05971,0.0935 -0.01951,0.0515 -0.0086,0.0936 0.02423,0.0936 0.03284,0 0.05971,-0.0421 0.05971,-0.0936 z m -0.493135,-0.15592 c 0,-0.0343 -0.02774,-0.0624 -0.06164,-0.0624 -0.0339,0 -0.06164,0.0281 -0.06164,0.0624 0,0.0343 0.02774,0.0624 0.06164,0.0624 0.0339,0 0.06164,-0.0281 0.06164,-0.0624 z m 1.047912,-0.25492 c 0,-0.0738 -0.23322,-0.19208 -0.26641,-0.13505 -0.01503,0.0258 -0.0026,0.11329 0.0277,0.19439 0.04553,0.12202 0.07086,0.13415 0.146867,0.0703 0.05052,-0.0424 0.09185,-0.10077 0.09185,-0.12967 z m -0.832165,-0.0569 c 0,-0.0457 -0.03467,-0.0949 -0.07705,-0.10915 -0.04584,-0.0155 -0.07705,0.0288 -0.07705,0.10915 0,0.0804 0.03122,0.1246 0.07705,0.10914 0.04238,-0.0143 0.07705,-0.0634 0.07705,-0.10914 z m -3.421123,-0.0312 c 0,-0.0514 -0.02774,-0.0935 -0.06164,-0.0935 -0.0339,0 -0.06164,0.0421 -0.06164,0.0935 0,0.0515 0.02774,0.0936 0.06164,0.0936 0.0339,0 0.06164,-0.0421 0.06164,-0.0936 z m -1.3253,-0.31619 c 0,-0.0653 -0.04854,-0.12814 -0.107873,-0.1397 -0.108485,-0.0211 -0.156173,0.16794 -0.0655,0.25969 0.07282,0.0737 0.173368,0.004 0.173368,-0.11999 z m -5.0238109,-1.04829 c 0,-0.0129 -0.048543,-0.0621 -0.1078732,-0.10914 -0.097768,-0.0776 -0.099948,-0.0754 -0.023274,0.0235 0.080527,0.1039 0.1311467,0.13693 0.1311467,0.0856 z m 8.0857569,0.46165 c -0.185212,-0.3575 -0.188275,-0.37531 -0.07511,-0.43659 0.144732,-0.0784 0.660905,-0.0846 0.70736,-0.009 0.01858,0.0304 -0.0098,0.0919 -0.06301,0.13658 -0.07858,0.066 -0.120406,0.0663 -0.222335,0.002 -0.06905,-0.0436 -0.149001,-0.0556 -0.177669,-0.0266 -0.05952,0.0602 0.06031,0.45434 0.183999,0.60513 0.07137,0.087 0.06608,0.1008 -0.03873,0.1008 -0.0857,0 -0.178204,-0.10962 -0.3145,-0.3727 z m -0.750377,0.24796 c 0,-0.0343 0.0261,-0.0624 0.058,-0.0624 0.0319,0 0.07515,0.0281 0.0961,0.0624 0.02095,0.0343 -0.0051,0.0624 -0.058,0.0624 -0.05285,0 -0.0961,-0.0281 -0.0961,-0.0624 z m -12.8814258,-0.128 c 0.037235,-0.0704 0.114493,-0.1233 0.1716839,-0.11756 0.1845771,0.0185 0.2130623,-0.002 0.1348044,-0.0975 -0.042205,-0.0515 -0.1357532,-0.0945 -0.2078838,-0.0956 -0.07213,-10e-4 -0.1949338,-0.0559 -0.2728961,-0.12165 -0.1365237,-0.11516 -0.13766,-0.12373 -0.030821,-0.23246 0.061011,-0.0621 0.1740352,-0.19446 0.2511653,-0.29415 0.1015724,-0.13128 0.1934447,-0.18125 0.3332255,-0.18125 0.2395726,0 0.4357844,0.21749 0.3841174,0.42578 -0.046293,0.18662 0.081768,0.26335 0.1932621,0.1158 0.073936,-0.0978 0.096085,-0.10168 0.1457022,-0.0252 0.1020544,0.15731 -0.042123,0.30678 -0.5148756,0.53376 -0.5362453,0.25748 -0.6883829,0.28079 -0.5874843,0.09 z m 0.4555514,-0.47119 c 0.053627,-0.0208 0.097504,-0.0779 0.097504,-0.12693 0,-0.0697 -0.026749,-0.0746 -0.1232837,-0.0223 -0.067806,0.0367 -0.1232837,0.0938 -0.1232837,0.12693 0,0.0704 0.018129,0.0732 0.1490634,0.0223 z m 7.3096004,-0.68458 c 0,-0.11014 0.132701,-0.091 0.1708,0.0247 0.01342,0.0407 -0.01952,0.0741 -0.0732,0.0741 -0.05368,0 -0.0976,-0.0444 -0.0976,-0.0987 z m -1.078732,-6.01341 c -0.06663,-0.10907 0.03217,-0.20124 0.128772,-0.12013 0.04784,0.0402 0.08697,0.0977 0.08697,0.12777 0,0.0752 -0.168802,0.0692 -0.215746,-0.008 z m -1.8685183,-0.12863 c 0.014832,-0.045 0.063375,-0.0941 0.1078733,-0.10915 0.046231,-0.0156 0.069347,0.008 0.053937,0.0546 -0.014833,0.045 -0.063376,0.0941 -0.1078732,0.10915 -0.046231,0.0156 -0.069347,-0.008 -0.053937,-0.0546 z m 1.3893843,-0.0585 c -0.1683146,-0.13395 -0.443789,-0.16607 -0.5089851,-0.0593 -0.027476,0.045 -0.066176,0.0434 -0.1239636,-0.005 -0.046209,-0.0388 -0.1408258,-0.0523 -0.2102585,-0.03 -0.069433,0.0223 -0.1262419,0.0128 -0.1262419,-0.0212 0,-0.0831 0.2279965,-0.15059 1.3869411,-0.41087 0.529982,-0.11903 2.197688,-0.23891 2.636612,-0.18953 0.70461,0.0793 0.747307,0.0918 0.62438,0.1827 -0.08121,0.0601 -0.139417,0.0644 -0.216035,0.016 -0.07868,-0.0497 -0.14434,-0.0401 -0.262858,0.0385 -0.180658,0.11976 -0.414536,0.13644 -0.513225,0.0366 -0.07546,-0.0764 -0.327155,0.0257 -0.327155,0.13271 0,0.12652 -0.122744,0.0529 -0.159613,-0.0957 -0.02127,-0.0858 -0.06203,-0.15593 -0.09057,-0.15593 -0.08272,0 -0.1678,0.19471 -0.137055,0.31367 0.03638,0.14075 -0.07497,0.20899 -0.21324,0.1307 -0.07799,-0.0442 -0.137171,-0.0349 -0.211329,0.033 -0.09265,0.0848 -0.109658,0.0817 -0.16915,-0.0307 -0.140648,-0.2659 -0.232273,-0.31411 -0.450083,-0.2368 -0.111356,0.0395 -0.236011,0.0936 -0.27701,0.12024 -0.041,0.0266 -0.127477,0.0149 -0.192171,-0.0259 -0.233522,-0.14756 -0.439276,0.11044 -0.244912,0.3071 0.124001,0.12546 -0.0425,0.0867 -0.214074,-0.0499 z m 4.363597,-0.24615 c -0.207259,-0.10918 -0.343521,-0.25904 -0.300132,-0.33007 0.04619,-0.0756 0.359012,-0.055 0.461653,0.0305 0.06049,0.0504 0.08103,0.13433 0.05801,0.2372 -0.03479,0.15546 -0.04001,0.15694 -0.219534,0.0624 z"
         id="path1698"
         inkscape:connector-curvature="0" />
      <path
         style="fill:#0656ac;stroke-width:0.06200434"
         d="m 18.725881,292.88343 c -0.04211,-0.0689 0.05513,-0.14337 0.112054,-0.0858 0.05861,0.0593 0.04768,0.14384 -0.01859,0.14384 -0.0319,0 -0.07396,-0.0261 -0.09347,-0.0581 z m -13.6563027,-0.0578 c 0,-0.0392 0.027739,-0.0713 0.061642,-0.0713 0.033903,0 0.061642,-0.0315 0.061642,-0.07 0,-0.0513 -0.02257,-0.0511 -0.084487,9.5e-4 -0.064952,0.0545 -0.1183998,0.0422 -0.231157,-0.0535 -0.1251022,-0.10612 -0.1330733,-0.13363 -0.054207,-0.18709 0.050854,-0.0345 0.1855817,-0.0631 0.2993938,-0.0636 0.1563877,-7.2e-4 0.1984497,-0.0233 0.1722072,-0.0925 -0.051209,-0.13502 0.014173,-0.15427 0.6384009,-0.18792 0.4636458,-0.025 0.55568,-0.0156 0.5009837,0.0511 -0.048677,0.0594 -0.04633,0.10291 0.00858,0.15925 0.059808,0.0614 0.05061,0.0962 -0.044069,0.16691 -0.06581,0.0491 -0.1698307,0.0894 -0.2311569,0.0894 -0.061326,0 -0.1674547,0.0566 -0.2358413,0.12581 -0.1445668,0.14627 -0.8619305,0.25659 -0.8619305,0.13255 z m 11.3848707,-0.42298 c -0.06987,-0.0707 0.02194,-0.14722 0.176615,-0.14722 0.09265,0 0.150466,0.0359 0.150466,0.0935 0,0.0933 -0.247693,0.13399 -0.327081,0.0537 z m 2.489404,-0.22626 c -0.02861,-0.0766 -0.04203,-0.15661 -0.02982,-0.17782 0.01221,-0.0212 0.188202,-0.0576 0.391089,-0.0808 0.366421,-0.0419 0.743427,0.0646 0.743427,0.21002 0,0.031 -0.159499,0.0734 -0.354441,0.0943 -0.194942,0.0209 -0.431794,0.0505 -0.526336,0.0658 -0.135126,0.0219 -0.183024,-0.002 -0.223919,-0.11146 z m -0.457885,-0.26199 c -0.04347,-0.11463 0.0721,-0.19408 0.157146,-0.10803 0.0658,0.0666 0.01847,0.19958 -0.07101,0.19958 -0.02828,0 -0.06703,-0.0412 -0.08613,-0.0915 z M 3.7712003,291.65817 c -0.1012453,-0.12343 0.00997,-0.21115 0.2695148,-0.21258 0.099552,-5.5e-4 0.1569595,-0.0275 0.1350563,-0.0633 -0.020953,-0.0343 -0.1735168,-0.0624 -0.3390302,-0.0624 -0.1655134,0 -0.318077,-0.0281 -0.3390302,-0.0624 -0.021929,-0.0359 0.035386,-0.0625 0.1350562,-0.0627 0.095234,-1.9e-4 0.2794303,-0.0302 0.4093247,-0.0667 0.1691917,-0.0475 0.291566,-0.0468 0.4314929,0.003 0.1721435,0.0608 1.4748343,0.16143 1.8904725,0.14601 0.084758,-0.003 0.4800359,-0.0218 0.8783964,-0.0416 0.5948716,-0.0294 0.7242918,-0.0203 0.7242918,0.051 0,0.0651 -0.1275105,0.0935 -0.5085453,0.11326 -0.2796999,0.0145 -0.6195007,0.0613 -0.7551127,0.10391 -0.2674001,0.084 -0.8271378,0.0939 -1.776381,0.0312 -0.5792705,-0.0382 -0.6066345,-0.0343 -0.6390184,0.0909 -0.025638,0.0992 -0.082518,0.13091 -0.2348421,0.13091 -0.1105551,0 -0.2372957,-0.0442 -0.2816457,-0.0983 z m 15.6252017,-0.0514 c -0.227786,-0.16162 -0.207793,-0.3218 0.04659,-0.37327 0.275169,-0.0557 0.275741,-0.0555 0.482272,0.14876 0.104047,0.10291 0.24206,0.18711 0.306696,0.18711 0.15301,0 0.227924,0.12195 0.0822,0.13382 -0.565701,0.0461 -0.743221,0.0274 -0.917763,-0.0964 z m -3.087824,-0.32809 c 0.0224,-0.0227 -0.02152,-0.0727 -0.0976,-0.11118 -0.07608,-0.0385 -0.138329,-0.12519 -0.138329,-0.19268 0,-0.0989 -0.04782,-0.1258 -0.246568,-0.13869 -0.470305,-0.0305 -0.647239,-0.08 -0.647239,-0.18101 0,-0.0842 0.09101,-0.0944 0.656211,-0.0732 0.579544,0.0217 0.633558,0.0152 0.462314,-0.0555 -0.106643,-0.044 -0.193897,-0.104 -0.193897,-0.13328 0,-0.0293 0.293955,-0.0684 0.653233,-0.087 0.359279,-0.0186 0.683823,-0.0647 0.72121,-0.10251 0.04954,-0.0501 -0.0146,-0.0688 -0.236503,-0.0688 -0.371294,0 -0.839131,-0.17904 -0.814831,-0.31184 0.01242,-0.0679 0.11644,-0.0988 0.378826,-0.1125 0.29612,-0.0155 0.355466,-0.002 0.327287,0.0718 -0.05311,0.14002 0.158992,0.16391 0.609151,0.0686 0.222206,-0.047 0.482589,-0.0696 0.57863,-0.0502 0.138012,0.0279 0.182798,0.009 0.213639,-0.089 0.04739,-0.15109 0.220358,-0.18992 0.675737,-0.15172 0.581048,0.0488 0.410486,0.15786 -0.255443,0.1634 -0.07628,6.4e-4 -0.138695,0.0169 -0.138695,0.0362 0,0.0433 0.602416,0.18816 0.782697,0.18816 0.297452,0 0.429831,0.18271 0.258199,0.35636 -0.05045,0.051 0.0272,0.0803 0.292799,0.11051 0.198801,0.0226 0.440925,0.0668 0.538052,0.0982 0.09713,0.0314 0.203794,0.0401 0.237035,0.0193 0.03324,-0.0208 0.126872,-0.002 0.208067,0.0421 0.124263,0.0673 0.164796,0.0644 0.2561,-0.0186 0.143545,-0.13033 0.502057,-0.19342 0.692714,-0.12189 l 0.152748,0.0573 -0.195919,0.10251 c -0.107755,0.0564 -0.323944,0.1025 -0.48042,0.1025 -0.156476,0 -0.336262,0.028 -0.399524,0.0623 -0.189693,0.10272 -1.030257,0.16852 -1.375093,0.10764 -0.642082,-0.11335 -0.689973,-0.13361 -0.691403,-0.29252 -0.0018,-0.19677 -0.120612,-0.22868 -0.255978,-0.0687 -0.121605,0.1437 -0.267209,0.16578 -0.374864,0.0569 -0.07233,-0.0732 -1.236876,-0.13095 -1.452692,-0.072 -0.0673,0.0184 -0.0986,0.0668 -0.07809,0.12094 0.04009,0.10571 -0.02221,0.13343 -0.387716,0.17255 -0.365038,0.0391 -0.433215,0.1247 -0.180403,0.22661 0.11207,0.0452 0.214653,0.0906 0.227959,0.10105 0.04957,0.0387 -0.135294,0.20903 -0.226941,0.20903 -0.05235,0 -0.07686,-0.0185 -0.05446,-0.0412 z m -7.5404884,-0.11103 c 0,-0.11807 0.088262,-0.16928 0.2101839,-0.12195 0.1563114,0.0607 0.1163003,0.21182 -0.056079,0.21182 -0.093082,0 -0.1541046,-0.0356 -0.1541046,-0.0899 z m 2.8687894,0.006 c -0.152539,-0.11285 -0.0446,-0.16958 0.235248,-0.12363 0.182397,0.0299 0.212601,0.0536 0.156186,0.12239 -0.08891,0.1084 -0.245921,0.1089 -0.391434,10e-4 z m 1.893043,0.006 c 0.01413,-0.0429 0.06267,-0.078 0.107874,-0.078 0.0452,0 0.09375,0.0351 0.107873,0.078 0.01528,0.0464 -0.02842,0.078 -0.107873,0.078 -0.07945,0 -0.123152,-0.0316 -0.107874,-0.078 z m -3.7755627,-0.0537 c 0,-0.0456 -0.074608,-0.0552 -0.217581,-0.028 -0.2053037,0.039 -0.2227416,0.0288 -0.3090365,-0.18017 -0.0503,-0.12181 -0.1257568,-0.2219 -0.1676806,-0.22242 -0.041924,-5e-4 -0.1160494,-0.0265 -0.1647243,-0.0576 -0.073344,-0.0469 -0.07469,-0.0735 -0.00786,-0.15496 0.1045729,-0.12749 0.3897577,-0.12539 0.6383969,0.005 0.1940036,0.1015 0.1948604,0.10392 0.058581,0.16545 -0.1938149,0.0875 -0.1727007,0.15994 0.077444,0.26569 0.1958269,0.0828 0.3038148,0.27664 0.1541046,0.27664 -0.033903,0 -0.061642,-0.0312 -0.061642,-0.0693 z m 3.0509957,-0.0199 c -0.0168,-0.0539 -0.04879,-0.14705 -0.07109,-0.20708 -0.0223,-0.06 -0.03568,-0.14103 -0.02973,-0.18001 0.0059,-0.039 -0.03723,-0.0895 -0.09596,-0.11232 -0.108241,-0.042 -0.06562,-0.0817 0.278246,-0.25923 0.159842,-0.0825 0.23011,0.0868 0.116663,0.28114 -0.137276,0.23513 -0.132917,0.29537 0.02438,0.33699 0.07138,0.0189 0.117747,0.0713 0.103045,0.11642 -0.03969,0.12185 -0.289306,0.14032 -0.325562,0.0241 z m -2.483586,-0.39796 c -0.195973,-0.15258 -0.117538,-0.19892 0.336671,-0.19892 0.37533,0 0.390398,0.006 0.390398,0.15592 0,0.14463 -0.02121,0.15582 -0.292799,0.15453 -0.183595,-8.6e-4 -0.345562,-0.0425 -0.43427,-0.11153 z m -3.9577117,-0.07 c -0.1393067,-0.0414 -0.1291653,-0.0502 0.1056111,-0.0924 0.267674,-0.0481 0.4162722,-0.009 0.35407,0.0925 -0.040631,0.0665 -0.2353313,0.0665 -0.4596811,-1.2e-4 z m -3.2053765,-0.057 c -0.217548,-0.0304 -0.3398238,-0.13798 -0.2340747,-0.20585 0.043983,-0.0282 0.1516287,-0.0518 0.2392115,-0.0523 0.087583,-5e-4 0.1758228,-0.0177 0.1960888,-0.0382 0.077599,-0.0785 -0.036201,-0.2122 -0.1806376,-0.2122 -0.083131,0 -0.136051,-0.0247 -0.1175997,-0.0549 0.05546,-0.0908 0.3564046,-0.1236 0.505084,-0.055 0.1065265,0.0491 0.161393,0.0417 0.2339732,-0.0318 0.076541,-0.0775 0.2375394,-0.0932 0.835375,-0.0816 0.4073086,0.008 0.7568654,0.0308 0.7767928,0.051 0.019927,0.0202 -0.1531872,0.0547 -0.3846991,0.0766 -0.2315118,0.022 -0.6076528,0.0667 -0.8358688,0.0994 -0.228216,0.0327 -0.4457733,0.0523 -0.4834607,0.0435 -0.037687,-0.009 -0.099991,0.0324 -0.138453,0.0914 -0.09968,0.15313 0.022994,0.27162 0.1884545,0.18202 0.092034,-0.0498 0.1804591,-0.035 0.3764689,0.0631 0.1409001,0.0705 0.256182,0.13831 0.256182,0.15063 0,0.0265 -1.0102067,0.005 -1.2328371,-0.0258 z m 2.5735474,0.0115 c 0.042379,-0.0173 0.1117259,-0.0173 0.1541047,0 0.042379,0.0173 0.00771,0.0315 -0.077052,0.0315 -0.084758,0 -0.1194311,-0.0142 -0.077053,-0.0315 z m 5.6248188,-0.0144 c 0,-0.0732 0.180259,-0.14169 0.253135,-0.0961 0.0314,0.0196 0.04113,0.0618 0.02162,0.0938 -0.04533,0.0742 -0.274756,0.0762 -0.274756,0.002 z m 2.249928,-0.13141 c -0.02095,-0.0343 0.0068,-0.0624 0.06164,-0.0624 0.05486,0 0.0826,0.0281 0.06164,0.0624 -0.02095,0.0343 -0.04869,0.0624 -0.06164,0.0624 -0.01295,0 -0.04069,-0.0281 -0.06164,-0.0624 z m 0.566726,0.0225 c -0.06564,-0.0664 0.01663,-0.14418 0.112954,-0.10678 0.04957,0.0192 0.07479,0.0601 0.05603,0.0908 -0.03996,0.0654 -0.113259,0.0723 -0.168984,0.0159 z m -5.6705949,-0.0619 c -0.084287,-0.0853 -0.041473,-0.15608 0.0825,-0.13642 0.069149,0.011 0.1260921,0.048 0.1265396,0.0823 9.924e-4,0.0759 -0.1491018,0.11478 -0.2090392,0.0541 z m -1.9040479,-0.24254 c -0.017663,-0.0179 -0.2095233,-0.0349 -0.4263565,-0.0378 -0.2168331,-0.003 -0.443562,-0.0318 -0.5038418,-0.0642 -0.1938253,-0.10419 -0.046619,-0.17863 0.2828167,-0.14302 0.1759548,0.019 0.555698,0.009 0.8438736,-0.0215 0.2881757,-0.0309 0.5586293,-0.0434 0.6010081,-0.0278 0.1548943,0.0569 0.069081,0.12553 -0.281432,0.22504 -0.3845842,0.10918 -0.4658491,0.12009 -0.5160681,0.0693 z m 2.0564074,-0.14274 c -0.057855,-0.0399 -0.012741,-0.0679 0.1541046,-0.0958 0.3650388,-0.061 0.7323102,-0.0504 0.6634889,0.0193 -0.083874,0.0849 -0.719186,0.14432 -0.8175935,0.0765 z m 1.6237134,-0.0969 c -0.166133,-0.0717 -0.173145,-0.0856 -0.07199,-0.14286 0.07219,-0.0409 0.235627,-0.0438 0.459236,-0.008 0.385566,0.0612 0.412546,0.0741 0.354124,0.16976 -0.05529,0.0905 -0.515282,0.079 -0.741373,-0.0185 z m 4.853432,-0.0553 c 0.01413,-0.0429 0.07654,-0.078 0.138694,-0.078 0.06216,0 0.124568,0.0351 0.138694,0.078 0.01627,0.0494 -0.03459,0.078 -0.138694,0.078 -0.104107,0 -0.154961,-0.0286 -0.138694,-0.078 z m -3.647671,-0.13472 c -0.09848,-0.12005 0.126178,-0.27945 0.336519,-0.23876 0.207603,0.0402 0.256772,0.14054 0.118822,0.24261 -0.147625,0.10922 -0.364101,0.10739 -0.455341,-0.004 z M 9.1379407,289.6115 c 0,-0.0592 0.1845175,-0.089 0.2174102,-0.0351 0.020039,0.0328 -0.020681,0.0596 -0.090488,0.0596 -0.069807,0 -0.1269218,-0.011 -0.1269222,-0.0245 z m 10.8951973,-0.0168 c 0.04238,-0.0173 0.111726,-0.0173 0.154105,0 0.04238,0.0173 0.0077,0.0315 -0.07705,0.0315 -0.08476,0 -0.119431,-0.0142 -0.07705,-0.0315 z M 4.8681341,288.66289 c -0.023127,-0.0234 -0.7287294,-0.0456 -1.5680063,-0.0493 l -1.525958,-0.007 -0.1359183,-0.24947 c -0.1877937,-0.34469 -0.4885239,-1.42887 -0.6141487,-2.2141 -0.11556356,-0.72234 -0.15449291,-2.87032 -0.0559525,-3.08726 0.0311629,-0.0686 0.0618646,-0.20894 0.068226,-0.31185 0.021772,-0.35221 0.1305377,-0.83694 0.2093587,-0.93303 0.1242567,-0.15149 0.5350013,-0.12381 0.7042751,0.0475 0.078015,0.0789 0.1747732,0.13242 0.2150171,0.11885 0.040244,-0.0136 0.108844,0.005 0.1524445,0.0419 0.043601,0.0366 0.2437744,0.0642 0.4448309,0.0613 0.4544187,-0.007 1.4660952,-0.35976 1.7989895,-0.62815 0.3451208,-0.27825 0.5339438,-0.3602 0.7932945,-0.34429 0.1805062,0.0111 0.2393062,-0.0107 0.2565002,-0.0948 0.016922,-0.0828 -0.018297,-0.10914 -0.1458703,-0.10914 -0.1642737,0 -0.165588,-0.003 -0.056608,-0.12474 0.1375183,-0.15375 0.5100709,-0.17155 0.5648963,-0.027 0.020389,0.0538 0.00565,0.12954 -0.032756,0.1684 -0.1892034,0.19143 -0.00894,0.21778 0.5257893,0.0769 0.1952852,-0.0515 0.4079853,-0.0766 0.4726667,-0.0558 0.064681,0.0208 0.1826991,0.003 0.2622609,-0.0406 0.1038677,-0.0562 0.1671295,-0.0595 0.2243492,-0.0114 0.085591,0.0719 0.840634,0.26372 1.0378898,0.26372 0.075019,0 0.1194588,-0.0428 0.1194588,-0.11507 0,-0.13631 0.1854119,-0.32151 0.3218784,-0.32151 0.1216305,0 0.1933656,0.17856 0.1117228,0.27809 -0.042186,0.0514 -0.033107,0.11296 0.028744,0.1948 0.088073,0.11653 0.091412,0.116 0.1294288,-0.0207 0.04618,-0.16607 0.1283432,-0.1776 0.2794724,-0.0392 0.1477987,0.13534 0.2590826,0.0808 0.3855939,-0.18894 0.057785,-0.12321 0.1268786,-0.22402 0.1535406,-0.22402 0.1084896,0 0.1209566,0.0876 0.036104,0.25358 -0.074348,0.14547 -0.076557,0.21581 -0.01295,0.41223 0.09524,0.29411 0.274784,0.35442 0.303401,0.10192 0.01896,-0.16731 0.03451,-0.17522 0.344241,-0.17522 0.285504,0 0.34263,-0.0224 0.476611,-0.18711 0.08372,-0.10291 0.199674,-0.29235 0.257666,-0.42099 0.126867,-0.28141 0.177875,-0.29314 0.225571,-0.0519 0.02011,0.10172 0.08471,0.19485 0.1464,0.21106 0.08508,0.0224 0.07815,0.0307 -0.03021,0.0362 -0.162396,0.008 -0.254684,0.18297 -0.135945,0.25722 0.144247,0.0902 0.615771,0.0503 0.676375,-0.0572 0.04038,-0.0716 0.0808,-0.0819 0.145382,-0.0369 0.0492,0.0343 0.217393,0.15283 0.373765,0.26338 0.219388,0.15511 0.325273,0.19273 0.46368,0.16472 0.123814,-0.025 0.256417,0.008 0.428139,0.10517 0.214803,0.12215 0.262773,0.12971 0.35132,0.0554 0.08335,-0.07 0.09544,-0.15497 0.06455,-0.454 -0.03328,-0.32216 -0.02653,-0.35826 0.05429,-0.2904 0.05937,0.0499 0.09229,0.18839 0.09229,0.38838 0,0.25875 0.01646,0.30449 0.09817,0.27277 0.06559,-0.0255 0.108948,0.004 0.13065,0.0876 0.01786,0.0691 0.09158,0.13764 0.16381,0.15227 0.402352,0.0815 0.470359,0.10464 0.470359,0.16034 0,0.0337 -0.0662,0.0612 -0.147108,0.0612 -0.118535,0 -0.152762,0.039 -0.176215,0.20066 -0.02811,0.19375 0.03699,0.28808 0.340227,0.49306 0.03469,0.0234 0.03052,0.0898 -0.01054,0.16741 -0.0374,0.0707 -0.06801,0.18479 -0.06801,0.25349 0,0.10869 -0.02895,0.12016 -0.222825,0.0883 -0.204102,-0.0335 -0.219424,-0.0257 -0.182352,0.0924 0.03838,0.12235 0.0288,0.12539 -0.185475,0.0588 -0.162003,-0.0503 -0.243313,-0.12056 -0.287308,-0.24825 -0.03909,-0.11345 -0.09252,-0.166 -0.147207,-0.14477 -0.155451,0.0604 -0.377748,-0.098 -0.469557,-0.33446 -0.08614,-0.22189 -0.103673,-0.23272 -0.383368,-0.237 -0.161204,-0.002 -0.323296,-0.035 -0.360205,-0.0724 -0.103869,-0.10509 -0.209726,-0.0806 -0.245238,0.0568 -0.02562,0.0991 -0.08408,0.12474 -0.284577,0.12474 -0.288913,0 -0.319388,0.0659 -0.09823,0.21256 0.179248,0.11883 0.20078,0.22361 0.04623,0.22498 -0.07934,7e-4 -0.08694,0.0144 -0.02873,0.0518 0.04353,0.0279 0.06218,0.0955 0.04145,0.15019 -0.04866,0.12828 0.13838,0.23186 0.346128,0.19168 0.0984,-0.019 0.187438,0.006 0.238049,0.0682 0.04447,0.0542 0.146162,0.0986 0.225987,0.0986 0.08814,0 0.18622,0.0634 0.249751,0.16155 0.08432,0.13021 0.138402,0.15471 0.27881,0.1263 0.201837,-0.0408 0.230157,0.0499 0.05091,0.16321 -0.06781,0.0428 -0.123284,0.11669 -0.123284,0.16409 0,0.0678 0.01885,0.0704 0.08852,0.0118 0.06245,-0.0524 0.123058,-0.0556 0.20578,-0.0108 0.06449,0.0349 0.17398,0.0485 0.243308,0.0301 0.06933,-0.0183 0.21944,0.0167 0.333585,0.0779 0.114145,0.0612 0.235275,0.11328 0.269178,0.11579 0.274829,0.0203 0.501849,0.30967 0.303425,0.38671 -0.151042,0.0586 -0.09769,0.25084 0.09165,0.33019 0.127784,0.0536 0.21393,0.0564 0.299694,0.01 0.08932,-0.0484 0.150378,-0.0422 0.236749,0.024 0.06401,0.049 0.187123,0.09 0.273576,0.0911 0.08645,0.001 0.188126,0.0333 0.225942,0.0716 0.05058,0.0512 0.127168,0.0245 0.289717,-0.10095 0.121528,-0.0938 0.220961,-0.20494 0.220961,-0.24701 0,-0.11746 0.209822,-0.28292 0.358772,-0.28292 0.07333,0 0.167964,-0.0561 0.21031,-0.12474 0.04544,-0.0736 0.14375,-0.12474 0.2399,-0.12474 0.102241,0 0.174459,-0.0406 0.193926,-0.10915 0.01706,-0.06 0.05154,-0.15968 0.07663,-0.22146 0.03868,-0.0952 0.02232,-0.10639 -0.107615,-0.0734 -0.11413,0.029 -0.198693,-0.003 -0.331416,-0.12615 l -0.17819,-0.16505 0.184925,0.0421 c 0.301772,0.0687 0.860986,0.1415 0.88867,0.11573 0.01413,-0.0132 -0.0067,-0.0239 -0.04623,-0.0239 -0.03955,0 -0.07192,-0.0561 -0.07192,-0.12474 0,-0.15246 0.05921,-0.15614 0.29635,-0.0184 0.173021,0.10047 0.216037,0.10002 0.7846,-0.008 0.675879,-0.1288 0.918606,-0.13631 1.538829,-0.0476 0.459243,0.0657 0.668472,0.0158 0.607528,-0.14489 -0.02027,-0.0534 -0.113403,-0.0926 -0.22028,-0.0926 h -0.185159 l 0.145523,-0.12892 0.145523,-0.12891 -0.398066,0.0306 c -0.401217,0.0309 -0.588456,-0.0208 -0.717547,-0.19791 -0.07461,-0.10237 -0.209687,-0.0517 -0.209687,0.0786 0,0.0455 0.07023,0.12925 0.156069,0.18616 0.08584,0.0569 0.137346,0.13412 0.114464,0.17158 -0.02718,0.0445 -0.07595,0.0264 -0.140659,-0.0521 -0.148294,-0.18 -0.427341,-0.30676 -0.504169,-0.22903 -0.0437,0.0442 -0.217137,-0.012 -0.554367,-0.17983 -0.355532,-0.17689 -0.528761,-0.23146 -0.628631,-0.19806 -0.176502,0.0591 -0.563081,0.0303 -0.589898,-0.0438 -0.02757,-0.0762 -0.236867,-0.072 -0.384177,0.008 -0.07672,0.0415 -0.119232,0.13049 -0.119232,0.24948 0,0.11795 -0.03162,0.18491 -0.08733,0.18491 -0.04803,0 -0.101529,0.0351 -0.118888,0.078 -0.02074,0.0512 -0.09118,0.0115 -0.205474,-0.11581 -0.190304,-0.21205 -0.527023,-0.37346 -0.636387,-0.30508 -0.03809,0.0238 -0.120464,-0.004 -0.183063,-0.0609 -0.106556,-0.0976 -0.117784,-0.0971 -0.175988,0.008 -0.05899,0.10665 -0.0682,0.10688 -0.179951,0.005 -0.06478,-0.0593 -0.161172,-0.10784 -0.214206,-0.10784 -0.108399,0 -0.192096,-0.1649 -0.132893,-0.26183 0.02173,-0.0356 0.136944,-0.0477 0.262177,-0.0275 0.122879,0.0198 0.265024,0.01 0.315879,-0.0227 0.134637,-0.0854 0.0019,-0.27226 -0.221586,-0.31212 -0.262355,-0.0468 -0.258944,-0.21866 0.0094,-0.47475 0.226658,-0.21629 0.45873,-0.59781 0.45873,-0.75415 0,-0.1051 0.06273,-0.10138 0.298739,0.0178 0.229161,0.11567 0.247476,0.16463 0.0557,0.14891 -0.251396,-0.0206 -0.280247,5e-4 -0.271067,0.19813 0.0079,0.16931 -0.01867,0.20534 -0.196804,0.26728 -0.216155,0.0752 -0.348694,0.23948 -0.29895,0.37063 0.01619,0.0427 0.141888,0.11515 0.279338,0.16105 0.203312,0.0679 0.284987,0.0687 0.438043,0.005 0.103474,-0.0434 0.188134,-0.10574 0.188134,-0.1386 0,-0.0344 0.08104,-0.0418 0.190559,-0.0174 0.156192,0.0347 0.222215,0.0117 0.366082,-0.1278 0.166741,-0.16163 0.170667,-0.17764 0.07848,-0.32 -0.05337,-0.0824 -0.07913,-0.16798 -0.05724,-0.19013 0.05388,-0.0545 0.219057,0.17397 0.2215,0.3064 0.0026,0.13991 0.276021,0.41278 0.460623,0.45966 0.08036,0.0204 0.159544,0.0891 0.175968,0.15264 0.02221,0.0859 0.09875,0.12053 0.298623,0.13504 0.214714,0.0156 0.266939,0.0421 0.259697,0.13172 -0.01167,0.14444 0.125387,0.10091 0.154092,-0.0489 0.01196,-0.0624 -0.02271,-0.13867 -0.07705,-0.16944 -0.05434,-0.0308 -0.0988,-0.0796 -0.0988,-0.10854 0,-0.0914 0.203789,-0.13597 0.253041,-0.0553 0.07669,0.12555 0.350911,-0.0607 0.396139,-0.26901 0.046,-0.2119 0.152164,-0.23786 0.152164,-0.0372 0,0.0775 -0.06935,0.21663 -0.154104,0.30912 -0.201399,0.21976 -0.194392,0.32683 0.03249,0.49656 0.102629,0.0768 0.172846,0.17584 0.156039,0.22015 -0.04378,0.11545 0.01214,0.0996 0.168291,-0.0476 l 0.135921,-0.12812 0.102538,0.12812 c 0.10945,0.13676 0.445942,0.17762 0.516153,0.0627 0.02421,-0.0396 0.09742,-0.003 0.18562,0.0935 0.240757,0.26285 0.490309,0.16922 0.334433,-0.12548 -0.09108,-0.1722 9.59e-4,-0.33921 0.186946,-0.33921 0.124509,0 0.272981,0.15578 0.224352,0.23539 -0.04836,0.0792 0.255942,0.3883 0.382233,0.3883 0.05965,0 0.138427,-0.0303 0.175053,-0.0674 0.04769,-0.0483 0.150169,-0.0387 0.361107,0.0338 0.204229,0.0702 0.314205,0.0812 0.358738,0.0362 0.03532,-0.0357 0.169628,-0.065 0.29846,-0.065 0.221506,0 0.234239,0.0106 0.234239,0.19589 v 0.1959 l 0.508545,-0.042 c 0.2797,-0.0231 0.59111,-0.0481 0.692021,-0.0556 0.158156,-0.0117 0.189049,0.0122 0.223864,0.17353 0.07394,0.34256 0.05373,1.79984 -0.03423,2.46834 -0.135544,1.03009 -0.469942,2.18612 -0.761151,2.63136 l -0.156173,0.23878 -2.131924,-0.0254 c -5.133533,-0.0612 -8.687412,-0.0678 -12.4287439,-0.0232 -2.2051511,0.0263 -4.0282879,0.0286 -4.0514145,0.005 z m 5.3793599,-3.33778 c 0,-0.0343 -0.02774,-0.045 -0.06164,-0.0238 -0.0339,0.0212 -0.06164,0.0666 -0.06164,0.10091 0,0.0343 0.02774,0.045 0.06164,0.0238 0.0339,-0.0212 0.06164,-0.0666 0.06164,-0.10092 z m 3.821795,0.0697 c 0,-0.0343 -0.05548,-0.0624 -0.123284,-0.0624 -0.06781,0 -0.123284,0.0281 -0.123284,0.0624 0,0.0343 0.05548,0.0624 0.123284,0.0624 0.06781,0 0.123284,-0.0281 0.123284,-0.0624 z m 0.63871,-0.15592 c -0.0393,-0.10363 -0.120574,-0.12257 -0.171083,-0.0399 -0.04122,0.0675 0.02121,0.13343 0.126309,0.13343 0.04601,0 0.06512,-0.0399 0.04477,-0.0935 z m -0.29968,-0.5925 c -0.02095,-0.0343 -0.06584,-0.0624 -0.09974,-0.0624 -0.0339,0 -0.0445,0.0281 -0.02354,0.0624 0.02095,0.0343 0.06583,0.0624 0.09974,0.0624 0.0339,0 0.0445,-0.0281 0.02355,-0.0624 z m -2.804705,-1.30975 c 0,-0.0343 -0.02774,-0.0624 -0.06164,-0.0624 -0.0339,0 -0.06164,0.0281 -0.06164,0.0624 0,0.0343 0.02774,0.0624 0.06164,0.0624 0.0339,0 0.06164,-0.0281 0.06164,-0.0624 z m 0.521102,-0.12007 c 0.04206,-0.0689 -0.08806,-0.37888 -0.15902,-0.37888 -0.02729,0 -0.134751,-0.0842 -0.238798,-0.18711 -0.174512,-0.1726 -0.431493,-0.2543 -0.431493,-0.13717 0,0.11682 0.16028,0.38571 0.230184,0.38616 0.04185,2.5e-4 0.166669,0.0839 0.277389,0.18576 0.217239,0.19994 0.2673,0.22036 0.321738,0.13124 z m 4.84174,-0.21049 c 0,-0.0899 -0.120435,-0.23076 -0.197254,-0.23076 -0.07481,0 -0.05895,0.15241 0.02466,0.237 0.0968,0.0979 0.172597,0.0952 0.172597,-0.006 z m -6.102544,-0.60866 c 0,-0.0666 -0.04161,-0.12105 -0.09246,-0.12105 -0.09143,0 -0.129246,0.19146 -0.05304,0.26857 0.06427,0.065 0.145507,-0.0173 0.145507,-0.14752 z m 8.075083,0.12842 c 0,-0.0343 -0.02774,-0.0624 -0.06164,-0.0624 -0.0339,0 -0.06164,0.0281 -0.06164,0.0624 0,0.0343 0.02774,0.0624 0.06164,0.0624 0.0339,0 0.06164,-0.0281 0.06164,-0.0624 z m -8.9997102,-0.15589 c 0,-0.0515 -0.027739,-0.0936 -0.061642,-0.0936 -0.033903,0 -0.061642,0.0421 -0.061642,0.0936 0,0.0514 0.027739,0.0935 0.061642,0.0935 0.033903,0 0.061642,-0.0421 0.061642,-0.0935 z m 3.5752272,-0.15224 c 0,-0.0323 -0.02683,-0.0755 -0.05962,-0.096 -0.03279,-0.0205 -0.04319,-0.1204 -0.02312,-0.22198 0.02802,-0.14177 0.01408,-0.18468 -0.06002,-0.18468 -0.157402,0 -0.183019,0.11722 -0.07565,0.34616 0.09414,0.20073 0.218408,0.28975 0.218408,0.15647 z m 0.893807,-0.35106 c 0,-0.0653 -0.04854,-0.12814 -0.107873,-0.1397 -0.108485,-0.0211 -0.156173,0.16794 -0.0655,0.25969 0.07282,0.0737 0.173368,0.004 0.173368,-0.11999 z m 2.98963,0.11037 c 0,-0.0645 -0.133456,-0.19958 -0.197254,-0.19958 -0.07964,0 -0.05648,0.17379 0.02774,0.20817 0.11886,0.0485 0.169515,0.046 0.169515,-0.009 z m -4.537071,-0.11165 c 0.0501,-0.1321 -0.0059,-0.21266 -0.14771,-0.21266 -0.0638,0 -0.134645,-0.0305 -0.157424,-0.0678 -0.02278,-0.0373 -0.09137,-0.0546 -0.152426,-0.0384 -0.07502,0.0199 -0.121934,-0.0129 -0.144703,-0.10098 -0.04054,-0.15685 -0.131045,-0.0852 -0.131045,0.10371 0,0.0913 -0.03329,0.12913 -0.103225,0.11744 -0.05677,-0.009 -0.120823,0.0116 -0.142332,0.0468 -0.05353,0.0876 0.128178,0.0808 0.272251,-0.0102 0.09844,-0.0622 0.150756,-0.0475 0.322783,0.0906 0.238884,0.19183 0.33165,0.20912 0.383831,0.0715 z m -2.8907722,-0.15029 c 0.020953,-0.0343 -0.00679,-0.0624 -0.061642,-0.0624 -0.054856,0 -0.082595,0.0281 -0.061642,0.0624 0.020953,0.0343 0.048692,0.0624 0.061642,0.0624 0.01295,0 0.040689,-0.0281 0.061642,-0.0624 z m 5.1470942,3.24318 c 0,-0.0818 0.02988,-0.10922 0.09246,-0.0849 0.05085,0.0197 0.09246,0.058 0.09246,0.0849 0,0.027 -0.04161,0.0652 -0.09246,0.0849 -0.06258,0.0243 -0.09246,-0.003 -0.09246,-0.0849 z m 1.651944,-0.74146 c -0.111802,-0.10107 -0.182607,-0.20468 -0.157347,-0.23024 0.0675,-0.0683 0.33676,0.0729 0.412664,0.2164 0.108764,0.20562 -0.03458,0.2134 -0.255317,0.0138 z m -1.990974,-0.63066 c -0.02095,-0.0343 -0.01036,-0.0624 0.02355,-0.0624 0.0339,0 0.07878,0.0281 0.09974,0.0624 0.02095,0.0343 0.01036,0.0624 -0.02355,0.0624 -0.0339,0 -0.07878,-0.0281 -0.09974,-0.0624 z m 1.356121,0 c -0.02095,-0.0343 -0.01036,-0.0624 0.02354,-0.0624 0.0339,0 0.07878,0.0281 0.09974,0.0624 0.02095,0.0343 0.01036,0.0624 -0.02355,0.0624 -0.0339,0 -0.07878,-0.0281 -0.09974,-0.0624 z m 0.462314,-0.12473 c -0.04889,-0.0306 -0.06843,-0.0763 -0.04342,-0.1016 0.02501,-0.0253 0.07784,-0.0133 0.117389,0.0267 0.09314,0.0942 0.04115,0.14683 -0.07397,0.0749 z m 1.171195,-0.0624 c 0,-0.0343 0.02774,-0.0624 0.06164,-0.0624 0.0339,0 0.06164,0.0281 0.06164,0.0624 0,0.0343 -0.02774,0.0624 -0.06164,0.0624 -0.0339,0 -0.06164,-0.0281 -0.06164,-0.0624 z m -1.951764,-0.17563 c -0.08994,-0.0583 -0.16671,-0.32332 -0.09366,-0.32332 0.08212,0 0.267142,0.29864 0.207951,0.33566 -0.02667,0.0167 -0.0781,0.0111 -0.11429,-0.0123 z m 2.383257,-0.26464 c 0,-0.0363 0.02774,-0.0487 0.06164,-0.0275 0.0339,0.0212 0.06164,0.0509 0.06164,0.0661 0,0.0151 -0.02774,0.0275 -0.06164,0.0275 -0.0339,0 -0.06164,-0.0297 -0.06164,-0.066 z m -5.470715,-0.13481 c -0.167242,-0.0816 -0.183563,-0.23572 -0.02496,-0.23572 0.128534,0 0.339909,0.20628 0.276803,0.27013 -0.05217,0.0528 -0.08132,0.0488 -0.251839,-0.0344 z m 7.566538,-0.54756 c 0,-0.0343 0.04161,-0.0624 0.09246,-0.0624 0.05085,0 0.09246,0.0281 0.09246,0.0624 0,0.0343 -0.04161,0.0624 -0.09246,0.0624 -0.05085,0 -0.09246,-0.0281 -0.09246,-0.0624 z m -2.639855,-0.76804 c -0.141301,-0.15219 -0.175992,-0.29224 -0.07239,-0.29224 0.0339,0 0.06164,0.0446 0.06164,0.0992 0,0.0545 0.06241,0.15183 0.138694,0.21622 0.07628,0.0644 0.108856,0.118 0.07239,0.11914 -0.03647,0.001 -0.12662,-0.0629 -0.200336,-0.14227 z m -0.935373,0.0196 c 0,-0.0343 0.0261,-0.0624 0.058,-0.0624 0.0319,0 0.07515,0.0281 0.0961,0.0624 0.02095,0.0343 -0.0051,0.0624 -0.058,0.0624 -0.05285,0 -0.0961,-0.0281 -0.0961,-0.0624 z M 3.8396373,281.39776 c 0.049023,-0.0927 0.1079065,-0.12031 0.2042909,-0.0958 0.1027317,0.0261 0.176533,-0.0177 0.3057724,-0.18163 0.093696,-0.11881 0.2191041,-0.21602 0.2786843,-0.21602 0.05958,0 0.139197,-0.0312 0.1769266,-0.0694 0.1068395,-0.1081 0.2148559,-0.008 0.141329,0.13112 -0.064916,0.12273 -0.9062695,0.56198 -1.076431,0.56198 -0.08174,0 -0.087184,-0.0232 -0.030572,-0.13021 z m -0.064538,-0.36138 c 0,-0.0343 0.027739,-0.0797 0.061642,-0.10092 0.033903,-0.0212 0.061642,-0.0105 0.061642,0.0238 0,0.0343 -0.027739,0.0797 -0.061642,0.10091 -0.033903,0.0212 -0.061642,0.0105 -0.061642,-0.0238 z m 14.1159847,-0.0579 c 0,-0.0335 0.04393,-0.0779 0.09761,-0.0988 0.06003,-0.0233 0.08822,-0.009 0.0732,0.0362 -0.03071,0.0932 -0.170813,0.14456 -0.170813,0.0626 z"
         id="path1696"
         inkscape:connector-curvature="0" />
      <path
         style="fill:#002eaa;stroke-width:0.06200434"
         d="m 5.6520938,291.44908 c -0.032208,-0.0319 -0.1556457,-0.0701 -0.2743062,-0.085 -0.1186606,-0.0149 0.00394,-0.0239 0.2724413,-0.02 0.3306188,0.005 0.4964165,0.0322 0.5136821,0.085 0.03047,0.0932 -0.4200427,0.11081 -0.5118172,0.02 z m -1.1045932,-0.0637 c -0.022282,-0.0365 8.358e-4,-0.0824 0.051374,-0.102 0.1305554,-0.0507 0.3782411,-0.006 0.3782411,0.0677 0,0.086 -0.3795385,0.11624 -0.4296151,0.0343 z M 17.7678,290.32199 c 0,-0.0343 0.05711,-0.0624 0.126922,-0.0624 0.06981,0 0.109778,0.0281 0.08882,0.0624 -0.02095,0.0343 -0.07807,0.0624 -0.126921,0.0624 -0.04885,0 -0.08882,-0.0281 -0.08882,-0.0624 z M 6.7223505,290.02991 c 0.044497,-0.018 0.097664,-0.0158 0.1181471,0.005 0.020483,0.0207 -0.015925,0.0355 -0.080905,0.0328 -0.07181,-0.003 -0.086416,-0.0178 -0.037242,-0.0377 z m 0.5971555,-1.42432 c -0.033903,-0.009 -0.2235695,-0.0649 -0.4214805,-0.12425 -0.2837516,-0.085 -0.3922592,-0.0929 -0.5131644,-0.0371 -0.084329,0.0389 -0.1779415,0.0553 -0.2080272,0.0365 -0.030086,-0.0188 -0.1871158,-0.0369 -0.3489558,-0.0402 -0.1923511,-0.004 -0.321254,-0.0409 -0.3722178,-0.10692 -0.071439,-0.0925 -0.083391,-0.0918 -0.1428219,0.009 -0.044908,0.0758 -0.109492,0.0982 -0.2099598,0.0727 -0.079806,-0.0203 -0.2100973,-3.7e-4 -0.2895368,0.0443 -0.1046804,0.0588 -0.539162,0.085 -1.5785284,0.0952 -1.4160398,0.0139 -1.4351757,0.0124 -1.5201165,-0.12258 -0.075038,-0.11926 -0.2953318,-0.74201 -0.4675524,-1.32173 -0.1472326,-0.49561 -0.25887093,-1.5639 -0.26368818,-2.52328 -0.006815,-1.35724 0.002055,-1.42582 0.19754828,-1.5276 0.2547753,-0.13263 0.6166208,-0.21756 0.6555298,-0.15386 0.019219,0.0315 0.088457,0.0572 0.1538623,0.0572 0.086278,0 0.1148887,-0.0381 0.1042353,-0.13897 -0.012186,-0.11533 0.062494,-0.17824 0.4389671,-0.36977 0.385384,-0.19606 0.4760772,-0.22045 0.6026802,-0.16208 0.1105639,0.051 0.16769,0.0498 0.2213275,-0.004 0.039764,-0.0402 0.1351215,-0.0731 0.2119056,-0.0731 0.076784,0 0.1690384,-0.0556 0.2050096,-0.12365 0.035971,-0.068 0.2103149,-0.1949 0.3874304,-0.28199 0.1771155,-0.0871 0.4329836,-0.24101 0.5685957,-0.34205 0.1884243,-0.14038 0.3146328,-0.18419 0.5352123,-0.18578 0.2459306,-0.002 0.2951448,0.0187 0.332568,0.13795 0.078581,0.25051 0.5808033,0.61844 0.5808033,0.42551 0,-0.032 0.059519,-0.0773 0.1322655,-0.10064 0.072746,-0.0234 0.1949455,-0.11621 0.2715546,-0.20632 0.1333326,-0.15684 0.1443591,-0.1592 0.2578497,-0.0553 0.065208,0.0597 0.1498298,0.10856 0.1880465,0.10856 0.038217,0 0.2106216,0.0842 0.3831208,0.1871 0.1724992,0.10291 0.32697,0.18711 0.3432687,0.18711 0.083247,0 0.1448343,-0.32956 0.08332,-0.44585 -0.052188,-0.0987 -0.04347,-0.15166 0.040366,-0.2454 0.058811,-0.0658 0.1288561,-0.11955 0.1556543,-0.11955 0.049549,0 0.2050375,0.25396 0.2768539,0.45218 0.021749,0.06 0.078893,0.10915 0.1269859,0.10915 0.1067243,0 0.403801,0.18574 0.4714296,0.29475 0.027112,0.0437 0.075655,0.0795 0.1078732,0.0795 0.091015,0 0.068991,-0.18548 -0.03445,-0.29014 -0.051166,-0.0518 -0.077268,-0.11993 -0.058004,-0.15147 0.045732,-0.0749 0.3084368,-0.0736 0.4446684,0.002 0.05887,0.0327 0.2387962,0.11536 0.3998355,0.1836 0.2771067,0.11742 0.3906567,0.25582 0.2098899,0.25582 -0.0456,0 -0.135429,0.0587 -0.1996203,0.13049 -0.088057,0.0984 -0.1651342,0.12253 -0.3139457,0.0981 -0.1301377,-0.0214 -0.2226146,-0.001 -0.2718406,0.0586 -0.1102859,0.13445 0.1003295,0.27096 0.3538378,0.22934 0.1884435,-0.0309 0.2007922,-0.0203 0.2677809,0.23144 0.044943,0.16888 0.1123546,0.27503 0.1872407,0.29484 0.140543,0.0372 0.221135,0.25307 0.129199,0.34609 -0.11075,0.11206 -0.5579883,-0.058 -0.6255742,-0.23785 -0.05063,-0.13474 -0.074307,-0.14412 -0.208106,-0.0824 -0.1070319,0.0493 -0.1479041,0.1147 -0.1404226,0.22456 0.01887,0.2771 -0.1455469,0.30259 -0.4797561,0.0744 -0.1654831,-0.113 -0.4141193,-0.22285 -0.5525243,-0.24411 l -0.2516455,-0.0387 0.00476,0.31932 c 0.00262,0.17562 0.025061,0.35254 0.049869,0.39316 0.050771,0.0831 -0.00103,0.19858 -0.089093,0.19858 -0.031902,0 -0.058004,-0.064 -0.058004,-0.14225 0,-0.10261 -0.054695,-0.16314 -0.1962713,-0.21721 -0.23673,-0.0904 -0.2907098,-0.0554 -0.1526549,0.0989 0.056298,0.0629 0.1023588,0.14731 0.1023588,0.18748 0,0.1187 -0.3415452,0.0833 -0.4585519,-0.0475 -0.059295,-0.0663 -0.1471632,-0.10525 -0.1952642,-0.0866 -0.048101,0.0187 -0.1243285,0.003 -0.1693949,-0.0349 -0.045067,-0.0378 -0.1001908,-0.0503 -0.122499,-0.0278 -0.072452,0.0733 -0.043128,0.13576 0.082724,0.17617 0.067806,0.0218 0.1232837,0.0805 0.1232837,0.13049 0,0.17151 0.2644282,0.21065 1.094143,0.16193 0.1390621,-0.008 0.200336,-0.0428 0.200336,-0.11311 0,-0.0802 0.040107,-0.0932 0.1926308,-0.0624 0.1059469,0.0214 0.2585105,0.039 0.3390302,0.039 0.08052,0 0.2056163,0.0599 0.277993,0.13315 0.1185225,0.11992 0.1372173,0.12298 0.1882167,0.0308 0.044815,-0.081 0.082556,-0.0883 0.1809848,-0.035 0.089114,0.0483 0.1788014,0.0481 0.3164372,-4.4e-4 0.2301282,-0.0812 0.3551871,3.8e-4 0.2316113,0.15105 -0.104679,0.12762 -0.025056,0.20563 0.1098975,0.10768 0.057704,-0.0419 0.1396549,-0.093 0.1821129,-0.11367 0.102076,-0.0496 0.329699,0.22727 0.298802,0.36345 -0.04154,0.1831 0.122315,0.25631 0.48814,0.21811 0.256463,-0.0268 0.337877,-0.0154 0.337877,0.0471 0,0.10148 -0.152819,0.16664 -0.277388,0.11827 -0.05752,-0.0223 -0.09246,3.8e-4 -0.09246,0.0601 0,0.0528 0.05548,0.11384 0.123284,0.13562 0.08338,0.0268 0.123284,0.0944 0.123284,0.20882 0,0.13348 -0.04232,0.18557 -0.200336,0.24657 -0.180724,0.0698 -0.210931,0.0643 -0.308558,-0.056 -0.08859,-0.10919 -0.124928,-0.11935 -0.200336,-0.056 -0.190083,0.15962 -0.07313,0.43918 0.13453,0.32159 0.06849,-0.0388 0.142783,-0.0348 0.216234,0.0116 0.08533,0.0539 0.1434,0.0508 0.244569,-0.0131 0.114054,-0.0721 0.140433,-0.0698 0.187988,0.0162 0.08705,0.15738 0.234118,0.12128 0.234118,-0.0575 0,-0.11167 0.04602,-0.17516 0.158243,-0.21834 0.120972,-0.0465 0.149031,-0.0902 0.11913,-0.18556 -0.02789,-0.0889 -0.01105,-0.12466 0.05868,-0.12466 0.07156,0 0.08815,0.0389 0.06183,0.14496 -0.02344,0.0945 -6.2e-5,0.1751 0.06714,0.23153 0.08894,0.0747 0.113694,0.0719 0.180273,-0.0202 0.05129,-0.071 0.162586,-0.10679 0.331837,-0.10679 0.187902,0 0.274844,-0.0327 0.331652,-0.12474 0.04235,-0.0686 0.111928,-0.12474 0.154627,-0.12474 0.0427,0 0.07764,0.0561 0.07764,0.12474 0,0.13025 0.08949,0.16816 0.152695,0.0647 0.06504,-0.10648 0.471086,-0.18982 0.595805,-0.12229 0.172205,0.0933 0.137787,0.18235 -0.07044,0.18235 -0.101709,0 -0.184926,0.0259 -0.184926,0.0576 0,0.0317 -0.06871,0.14021 -0.152697,0.2412 l -0.152696,0.1836 0.284584,0.0395 c 0.156521,0.0217 0.386223,0.0395 0.510448,0.0395 0.326072,0 1.452067,-0.38934 1.879956,-0.65004 0.201418,-0.12272 0.388411,-0.22313 0.415539,-0.22313 0.02713,0 0.178569,-0.0998 0.336534,-0.22181 0.157965,-0.122 0.388158,-0.27393 0.51154,-0.33762 0.123382,-0.0637 0.34619,-0.23545 0.495129,-0.38169 0.473902,-0.46533 0.729714,-0.56956 1.997675,-0.81392 0.261535,-0.0504 0.45039,-0.0512 0.67806,-0.003 0.702004,0.14872 0.792173,0.14743 1.205647,-0.0173 0.269301,-0.10728 0.517081,-0.15829 0.770523,-0.15863 0.34825,-4.3e-4 1.584578,-0.14274 1.955643,-0.22505 0.159695,-0.0354 0.165556,-0.0263 0.20888,0.32452 0.06328,0.51248 -0.0074,2.07763 -0.123277,2.72788 -0.12776,0.71722 -0.482911,1.82035 -0.680284,2.113 l -0.155788,0.231 -1.956847,-0.006 c -1.397267,-0.004 -2.032635,-0.0284 -2.221878,-0.0855 -0.174715,-0.0527 -0.384778,-0.0644 -0.616419,-0.0344 -0.193263,0.025 -0.49008,0.0365 -0.659596,0.0256 -0.169515,-0.0109 -0.436543,-0.0184 -0.593396,-0.0168 -0.202192,0.002 -0.29581,-0.025 -0.321686,-0.0932 -0.04687,-0.12357 -0.225292,-0.12569 -0.225292,-0.003 0,0.0695 -0.07511,0.0944 -0.292799,0.0969 -0.161039,0.002 -1.430091,0.0169 -2.820115,0.0334 -5.1252317,0.0609 -6.3504991,0.0716 -6.4107516,0.0555 z m 3.728484,-2.05589 c 0.06302,-0.0768 0.04723,-0.10354 -0.09306,-0.15751 -0.173855,-0.0669 -0.39923,-0.0319 -0.39923,0.0619 0,0.0448 0.25239,0.16723 0.377714,0.18318 0.02128,0.003 0.07283,-0.0367 0.114573,-0.0876 z m 1.989273,-0.37456 c 0.02486,-0.0949 -0.583497,-0.38842 -0.615394,-0.29694 -0.01495,0.0429 -0.108089,0.078 -0.206973,0.078 -0.212033,0 -0.231102,0.0813 -0.04929,0.21015 0.143386,0.10162 0.845483,0.10872 0.871656,0.009 z M 2.1107693,285.76906 c 0,-0.0343 -0.012232,-0.0624 -0.027183,-0.0624 -0.014951,0 -0.044326,0.0281 -0.06528,0.0624 -0.020953,0.0343 -0.00872,0.0624 0.027183,0.0624 0.035904,0 0.06528,-0.0281 0.06528,-0.0624 z m 7.5203063,0 c 0,-0.0343 -0.029376,-0.0624 -0.06528,-0.0624 -0.035904,0 -0.048136,0.0281 -0.027183,0.0624 0.020953,0.0343 0.050329,0.0624 0.06528,0.0624 0.014951,0 0.027183,-0.0281 0.027183,-0.0624 z m 0.7218414,-0.37422 c 0.01773,-0.0686 0.05674,-0.12473 0.08669,-0.12473 0.02995,0 0.05445,-0.0421 0.05445,-0.0936 0,-0.1301 -0.139158,-0.11675 -0.325029,0.0312 -0.2051558,0.16328 -0.3052646,0.15735 -0.5267148,-0.0312 -0.100729,-0.0858 -0.2239412,-0.15592 -0.2738051,-0.15592 -0.049864,0 -0.156815,-0.0517 -0.2376688,-0.11497 -0.1323858,-0.10353 -0.6784056,-0.32161 -0.8052276,-0.32161 -0.027863,0 -0.050661,0.0658 -0.050661,0.14625 0,0.0804 -0.055478,0.19706 -0.1232838,0.25915 -0.1717977,0.1573 -0.1571676,0.19881 0.1173865,0.33303 l 0.2406695,0.11765 0.076831,-0.14526 c 0.05984,-0.11313 0.060482,-0.16518 0.0029,-0.23538 -0.1023489,-0.12477 0.029136,-0.20088 0.1588609,-0.0919 0.053964,0.0453 0.1290312,0.0844 0.1668152,0.0867 0.1162836,0.007 0.3934988,0.14207 0.4361987,0.21198 0.022245,0.0364 0.1012221,0.0671 0.175503,0.0682 0.074281,10e-4 0.1889008,0.0432 0.2547109,0.0935 0.1832588,0.14025 0.5317754,0.12002 0.5713654,-0.0332 z m -2.0163204,-0.31552 c 0,-0.0363 0.027739,-0.0487 0.061642,-0.0275 0.033903,0.0212 0.061642,0.0509 0.061642,0.0661 0,0.0151 -0.027739,0.0275 -0.061642,0.0275 -0.033903,0 -0.061642,-0.0297 -0.061642,-0.0661 z m -1.0479115,-0.12106 c 0,-0.0343 -0.012232,-0.0624 -0.027183,-0.0624 -0.014951,0 -0.044327,0.0281 -0.06528,0.0624 -0.020953,0.0343 -0.00872,0.0624 0.027183,0.0624 0.035904,0 0.06528,-0.0281 0.06528,-0.0624 z m -5.459371,-0.512 c 0.1452225,-0.20978 0.00242,-0.31472 -0.1519953,-0.11169 -0.065222,0.0858 -0.1192017,0.17697 -0.1199556,0.2027 -0.00296,0.10107 0.1817819,0.0392 0.2719509,-0.091 z m 0.3315392,0.017 c 0.01541,-0.0468 -0.00771,-0.0702 -0.053937,-0.0546 -0.044498,0.015 -0.093041,0.0641 -0.1078732,0.10915 -0.01541,0.0468 0.00771,0.0702 0.053937,0.0546 0.044498,-0.015 0.093041,-0.0641 0.1078733,-0.10914 z m 0.8129019,-0.23503 c 0,-0.14741 -0.1521237,-0.0535 -0.1754353,0.10829 -0.018623,0.12926 -0.00884,0.13757 0.077052,0.0654 0.054111,-0.0454 0.098383,-0.12361 0.098383,-0.17373 z m 3.3286602,0.10639 c 0,-0.0343 -0.027739,-0.0624 -0.061642,-0.0624 -0.033903,0 -0.061642,0.0281 -0.061642,0.0624 0,0.0343 0.027739,0.0624 0.061642,0.0624 0.033903,0 0.061642,-0.0281 0.061642,-0.0624 z m -0.4623139,-0.0624 c 0.020953,-0.0343 -0.00351,-0.0624 -0.054366,-0.0624 -0.050855,0 -0.1096063,0.0281 -0.1305596,0.0624 -0.020953,0.0343 0.00351,0.0624 0.054366,0.0624 0.050855,0 0.1096063,-0.0281 0.1305596,-0.0624 z m -1.2394212,-0.14107 c 0.076683,-0.123 0.017574,-0.20037 -0.1140411,-0.14927 -0.1100446,0.0427 -0.1320479,0.31317 -0.022473,0.27621 0.039957,-0.0135 0.1013879,-0.0706 0.1365141,-0.12694 z M 1.3701804,283.9925 c 0.2043983,-0.22014 0.5243396,-0.26997 0.6978044,-0.10869 0.1901179,0.17677 0.6124104,0.23993 0.7207849,0.1078 0.088671,-0.1081 0.4534389,-0.28073 0.5931855,-0.28073 0.1148526,0 0.1084969,0.24424 -0.00753,0.28929 -0.1330894,0.0517 -0.1138436,0.14729 0.029646,0.14729 0.1444347,0 0.2398948,-0.28236 0.1322733,-0.39125 -0.038201,-0.0387 -0.069457,-0.1238 -0.069457,-0.18921 0,-0.0846 -0.02917,-0.10761 -0.1011467,-0.0797 -0.2503122,0.0972 -0.4307396,-0.11346 -0.2367273,-0.27637 0.076016,-0.0638 0.1136848,-0.0609 0.2003361,0.0154 0.1167853,0.10289 0.2608216,0.0817 0.2608216,-0.0383 0,-0.14564 0.1337218,-0.2243 0.2626285,-0.1545 0.084255,0.0456 0.1401985,0.0453 0.1861386,-10e-4 0.08896,-0.09 -0.05047,-0.40683 -0.1512954,-0.34378 -0.049346,0.0308 -0.058453,0.01 -0.029072,-0.0679 0.026232,-0.0692 0.00354,-0.15667 -0.05865,-0.2262 -0.091991,-0.10285 -0.1176657,-0.10491 -0.2758108,-0.0222 -0.095908,0.0502 -0.1965607,0.12967 -0.2236731,0.17663 -0.027112,0.047 -0.2018587,0.17524 -0.3883253,0.28504 -0.1864666,0.1098 -0.4777244,0.30979 -0.6472395,0.44443 -0.1801099,0.14305 -0.3755269,0.24492 -0.4701766,0.2451 -0.089082,1.9e-4 -0.1978293,0.044 -0.2416604,0.0975 -0.043831,0.0534 -0.1720523,0.1362 -0.2849361,0.18393 -0.1379764,0.0583 -0.2052431,0.12869 -0.2052431,0.21468 0,0.17286 0.1325484,0.16119 0.3073227,-0.027 z m 0.7799394,-0.18807 c 0.019515,-0.0514 0.1052571,-0.0935 0.1905387,-0.0935 0.1308396,0 0.1430721,0.0146 0.07832,0.0935 -0.042206,0.0515 -0.1279479,0.0936 -0.1905386,0.0936 -0.075832,0 -0.1019631,-0.0312 -0.07832,-0.0936 z m 3.1227877,0.2353 c 0.054018,-0.0309 -0.066642,-0.20411 -0.1421457,-0.20411 -0.025853,0 -0.092983,0.071 -0.1491785,0.15778 -0.1019662,0.15745 -0.1018239,0.15769 0.069963,0.11611 0.094675,-0.0229 0.1942879,-0.0543 0.2213614,-0.0698 z m -0.3132572,-0.52739 c -0.094159,-0.0953 -0.1636368,-0.025 -0.1114129,0.11273 0.030835,0.0813 0.057568,0.0894 0.1124064,0.0339 0.054838,-0.0555 0.054602,-0.0904 -9.937e-4,-0.1466 z m 0.6647047,-0.32432 c 0,-0.0475 -0.055478,-0.10096 -0.1232837,-0.1189 -0.1388402,-0.0367 -0.1597685,0.0186 -0.049314,0.13034 0.098469,0.0996 0.1725972,0.0947 0.1725972,-0.0114 z m -1.2328371,-0.0385 c 0,-0.0343 -0.026102,-0.0624 -0.058004,-0.0624 -0.031902,0 -0.075147,0.0281 -0.096101,0.0624 -0.020953,0.0343 0.00515,0.0624 0.058004,0.0624 0.052855,0 0.096101,-0.0281 0.096101,-0.0624 z m 3.3440706,-0.0384 c 0.1058767,-0.0378 0.1524607,-0.14951 0.061642,-0.14783 -0.1565364,0.003 -0.3236198,0.0894 -0.3236198,0.16754 0,0.051 0.034108,0.0754 0.077052,0.0551 0.042379,-0.02 0.1255952,-0.0537 0.1849255,-0.0748 z m 0.7859337,-0.0618 c 0,-0.0478 -0.028426,-0.0869 -0.063167,-0.0869 -0.034742,0 -0.091812,-0.0762 -0.1268232,-0.1694 -0.051094,-0.13597 -0.074934,-0.15135 -0.1208137,-0.078 -0.084728,0.13555 -0.07113,0.2886 0.0352,0.39618 0.1064444,0.1077 0.2756045,0.0697 0.2756045,-0.0619 z m -2.9464807,-0.2116 c 0.061025,0 0.1109553,0.0281 0.1109553,0.0624 0,0.0831 0.1668906,0.08 0.2182812,-0.004 0.057921,-0.0948 0.00456,-0.13032 -0.2731148,-0.1817 -0.286542,-0.053 -0.4117575,0.003 -0.3527999,0.1588 0.031877,0.084 0.058935,0.093 0.1137734,0.0375 0.039572,-0.04 0.1218794,-0.0728 0.1829048,-0.0728 z m -0.4414859,-0.1827 c -0.032802,-0.062 -0.042123,-0.13047 -0.020714,-0.15213 0.021409,-0.0217 0.00656,-0.0394 -0.03299,-0.0394 -0.075175,0 -0.1008777,0.26175 -0.032497,0.33094 0.077887,0.0788 0.144576,-0.0291 0.0862,-0.13942 z m 2.771548,0.0543 c 0,-0.0323 -0.027739,-0.0587 -0.061642,-0.0587 -0.033903,0 -0.061642,0.0438 -0.061642,0.0972 0,0.0535 0.027739,0.0799 0.061642,0.0587 0.033903,-0.0212 0.061642,-0.065 0.061642,-0.0972 z m 1.2672869,0.0329 c -0.1366366,-0.10457 -0.2193753,-0.11754 -0.2193753,-0.0344 0,0.0645 0.108547,0.11864 0.2465674,0.12303 0.068902,0.002 0.061973,-0.0204 -0.027192,-0.0886 z m -1.5754961,-0.27868 c 0,-0.0343 -0.041608,-0.0624 -0.092463,-0.0624 -0.050855,0 -0.092463,0.0281 -0.092463,0.0624 0,0.0343 0.041608,0.0624 0.092463,0.0624 0.050855,0 0.092463,-0.0281 0.092463,-0.0624 z m -0.5770547,-0.0936 c 0.029208,-0.10092 -0.5090847,-0.39992 -0.6519377,-0.36212 -0.1788862,0.0473 -0.1600996,0.1 0.1040285,0.29158 0.2254699,0.16355 0.5103748,0.20023 0.5479092,0.0705 z m 1.5575756,-0.11255 c -0.081596,-0.0797 -0.1772949,-0.19636 -0.212665,-0.25919 -0.054036,-0.096 -0.08604,-0.10245 -0.200336,-0.0406 -0.157789,0.0854 -0.1805348,0.28812 -0.038523,0.34326 0.053627,0.0208 0.1768147,0.0378 0.2737503,0.0378 0.096935,0 0.1945299,0.0299 0.2168776,0.0665 0.022347,0.0366 0.056071,0.0509 0.074941,0.0318 0.01887,-0.0191 -0.03245,-0.1 -0.1140455,-0.17969 z m -3.8314651,-0.2045 c -0.058742,-0.0594 -0.176511,0.0368 -0.1327339,0.1085 0.02602,0.0426 0.060499,0.0415 0.1047692,-0.003 0.036292,-0.0367 0.048876,-0.0841 0.027965,-0.10523 z m 9.5082638,3.87208 c 0,-0.10066 0.05646,-0.11559 0.210705,-0.0557 0.150066,0.0583 0.115562,0.14925 -0.0566,0.14925 -0.09589,0 -0.154105,-0.0353 -0.154105,-0.0935 z m -2.065002,-0.4054 c 0.02095,-0.0343 0.05033,-0.0624 0.06528,-0.0624 0.01495,0 0.02718,0.0281 0.02718,0.0624 0,0.0343 -0.02938,0.0624 -0.06528,0.0624 -0.0359,0 -0.04814,-0.0281 -0.02718,-0.0624 z m 0.184926,-0.18711 c 0.02095,-0.0343 0.06583,-0.0624 0.09974,-0.0624 0.0339,0 0.0445,0.0281 0.02354,0.0624 -0.02095,0.0343 -0.06583,0.0624 -0.09974,0.0624 -0.0339,0 -0.0445,-0.0281 -0.02355,-0.0624 z m -0.292476,-0.53013 c -0.02478,-0.13118 -0.0061,-0.15592 0.118033,-0.15592 0.170556,0 0.264007,0.17357 0.137194,0.25481 -0.146344,0.0938 -0.224554,0.0634 -0.255227,-0.0989 z m -0.695728,-0.24948 c -0.01589,-0.0515 -0.04155,-0.13475 -0.05702,-0.18511 -0.03889,-0.12658 0.07616,-0.18462 0.184934,-0.0933 0.120815,0.10145 0.117444,0.37195 -0.0046,0.37195 -0.05192,0 -0.107397,-0.0421 -0.123284,-0.0936 z m -1.096811,-0.19696 c -0.02231,-0.0226 -0.01191,-0.076 0.0231,-0.11864 0.03501,-0.0427 0.07135,-0.21367 0.08075,-0.37996 0.0145,-0.25653 0.03746,-0.30536 0.151553,-0.32227 0.141582,-0.021 0.174471,0.0777 0.07753,0.23264 -0.03363,0.0538 -0.02897,0.13021 0.01199,0.19658 0.11827,0.19161 -0.193153,0.54522 -0.34493,0.39165 z m -0.7196893,-0.33314 -0.1541046,-0.12193 0.1849255,-0.15495 c 0.188282,-0.15777 0.3131542,-0.17653 0.3020451,-0.0454 -0.00339,0.04 -0.010325,0.15696 -0.01541,0.25987 -0.010711,0.21675 -0.1001607,0.23433 -0.3174556,0.0624 z m -1.4205883,-0.19248 c -0.037843,-0.0716 -0.054533,-0.14452 -0.03709,-0.16217 0.046927,-0.0475 0.1537403,0.0331 0.2266793,0.17098 0.050279,0.0951 0.044158,0.12127 -0.028321,0.12127 -0.050854,0 -0.1234249,-0.0585 -0.1612683,-0.13008 z m 3.3302486,0.035 c -0.04289,-0.0523 -0.06412,-0.10908 -0.04719,-0.12621 0.05582,-0.0565 0.233353,0.0458 0.233353,0.13439 0,0.11442 -0.0888,0.11052 -0.186162,-0.008 z m 0.678497,-0.31132 c -0.105933,-0.12914 -0.01942,-0.23265 0.127825,-0.15292 0.06575,0.0356 0.119543,0.0888 0.119543,0.11824 0,0.0983 -0.175015,0.12289 -0.247368,0.0347 z m -1.369038,-0.18961 c -0.02365,-0.0239 -0.0025,-0.12276 0.047,-0.21962 0.116797,-0.22852 0.113471,-0.30531 -0.01787,-0.41253 -0.09827,-0.0802 -0.09415,-0.0843 0.04623,-0.0453 0.286489,0.0795 0.405443,0.13747 0.487805,0.23788 0.04514,0.055 0.162758,0.10005 0.26138,0.10005 0.104752,0 0.19449,0.04 0.215813,0.0962 0.05726,0.15098 -0.0224,0.17949 -0.190382,0.0681 -0.236444,-0.15675 -0.53099,-0.1315 -0.680603,0.0584 -0.0695,0.0882 -0.145718,0.14076 -0.169372,0.11683 z m 1.863488,-0.58738 c -0.06505,-0.0416 -0.07274,-0.0783 -0.02628,-0.12526 0.04646,-0.047 0.09868,-0.0295 0.178554,0.0598 0.08543,0.0955 0.09182,0.12598 0.02628,0.12526 -0.04763,-5e-4 -0.127983,-0.0274 -0.178554,-0.0598 z m -0.835215,-0.0682 c -0.02235,-0.0366 -0.02583,-0.0815 -0.0077,-0.0998 0.04415,-0.0447 0.164379,0.034 0.164379,0.10763 0,0.0797 -0.10642,0.0744 -0.15664,-0.008 z m -1.765593,-0.21441 c -0.089664,-0.19911 -0.070533,-0.21346 0.219602,-0.16467 0.149084,0.0251 0.273739,0.093 0.331138,0.18053 0.09102,0.13875 0.08883,0.14033 -0.194178,0.14033 -0.24562,0 -0.296206,-0.0222 -0.356562,-0.15619 z m -4.0577086,-1.03011 c -0.085255,-0.16118 -0.030991,-0.24819 0.1547864,-0.24819 0.1776124,0 0.2210966,0.0594 0.1747627,0.23866 -0.044312,0.17144 -0.2408971,0.17713 -0.3295491,0.01 z m 1.2335188,-0.096 c 0,-0.0535 0.027739,-0.0799 0.061642,-0.0587 0.033903,0.0212 0.061642,0.0649 0.061642,0.0972 0,0.0323 -0.027739,0.0587 -0.061642,0.0587 -0.033903,0 -0.061642,-0.0438 -0.061642,-0.0972 z"
         id="path1694"
         inkscape:connector-curvature="0" />
      <path
         style="fill:#000d54;stroke-width:0.06200434"
         d="m 7.0598107,288.34524 c -0.058844,-0.15515 0.1887295,-0.41626 0.5716475,-0.6029 0.3556562,-0.17336 1.2840719,-0.49285 1.7838709,-0.61388 0.1356121,-0.0328 0.3297839,-0.0895 0.431493,-0.12585 0.101709,-0.0364 0.3652279,-0.0872 0.5855969,-0.11296 0.22037,-0.0258 0.511628,-0.0805 0.64724,-0.12171 0.682929,-0.20741 1.632124,-0.37002 2.38306,-0.40826 0.679422,-0.0346 0.91872,-0.0746 1.377093,-0.23011 0.305127,-0.10353 0.665732,-0.25241 0.801344,-0.33084 0.135612,-0.0784 0.343653,-0.1958 0.462314,-0.26081 0.536902,-0.29414 1.529006,-0.99518 1.713447,-1.21076 0.212785,-0.24871 0.39004,-0.32089 1.278372,-0.52055 0.550966,-0.12384 1.001401,-0.13669 1.508036,-0.043 0.377149,0.0697 0.426005,0.0644 0.832165,-0.09 0.292852,-0.11134 0.629552,-0.17983 1.047912,-0.21316 0.843574,-0.0672 1.247383,-0.11834 1.558818,-0.19739 0.145386,-0.0369 0.28408,-0.0471 0.308209,-0.0226 0.09302,0.0943 0.04119,2.41914 -0.06721,3.01446 -0.116972,0.64242 -0.485162,1.85218 -0.620857,2.03994 -0.08425,0.11658 -0.1898,0.12073 -3.037154,0.11933 -1.622429,-8e-4 -3.144042,-0.008 -3.381363,-0.0166 -0.237321,-0.008 -2.618035,-0.003 -5.290475,0.0119 -4.2226804,0.0235 -4.8635097,0.0151 -4.8935583,-0.0642 z"
         id="path1692"
         inkscape:connector-curvature="0" />
      <path
         style="fill:#00011a;stroke-width:0.06200434"
         d="m 18.174491,288.29174 c -0.08301,-0.0614 -0.148161,-0.0678 -0.231555,-0.0226 -0.06382,0.0346 -0.141112,0.0472 -0.171754,0.028 -0.03064,-0.0192 -0.758212,-0.0498 -1.616824,-0.0682 -0.858613,-0.0183 -1.755285,-0.0467 -1.992607,-0.0631 -0.688976,-0.0475 -0.726084,-0.0461 -1.004322,0.0362 -0.238458,0.0705 -0.27284,0.0669 -0.34777,-0.0368 -0.07025,-0.0972 -0.0984,-0.10225 -0.181498,-0.0325 -0.05409,0.0454 -0.134272,0.0686 -0.178179,0.0516 -0.04391,-0.0171 -0.370191,-0.01 -0.725077,0.0159 -0.354885,0.0258 -0.657267,0.0361 -0.671958,0.023 -0.01469,-0.0131 0.0055,-0.0564 0.04476,-0.0962 0.09518,-0.0963 -0.01757,-0.23596 -0.195116,-0.24167 l -0.131147,-0.004 0.134769,-0.0659 c 0.172351,-0.0843 0.45794,-0.017 0.414454,0.0977 -0.05872,0.15483 0.347442,0.18509 0.540996,0.0403 0.115979,-0.0868 0.264094,-0.12601 0.475515,-0.12601 0.168887,0 0.324211,-0.0281 0.345164,-0.0624 0.02095,-0.0343 0.161285,-0.0624 0.311847,-0.0624 0.224361,0 0.273751,-0.0206 0.273751,-0.11434 0,-0.16967 -0.04898,-0.1915 -0.253993,-0.11321 -0.166711,0.0637 -0.197,0.0552 -0.303268,-0.0847 -0.168078,-0.22135 -0.150872,-0.25997 0.110357,-0.24775 0.362272,0.0169 0.385262,0.008 0.385262,-0.15053 0,-0.18754 0.161349,-0.25494 0.334902,-0.13988 0.114153,0.0757 0.155835,0.0756 0.299524,-5.6e-4 0.09181,-0.0487 0.166918,-0.114 0.166918,-0.14519 0,-0.0977 -0.130902,-0.14366 -0.202625,-0.0711 -0.09971,0.10086 -0.29051,0.085 -0.29051,-0.0242 0,-0.093 0.0467,-0.10454 0.523956,-0.1299 0.249509,-0.0132 1.427157,-0.40756 1.660726,-0.55606 0.06979,-0.0444 0.196235,-0.10137 0.280992,-0.12667 0.08476,-0.0253 0.261796,-0.13176 0.393418,-0.23656 0.362948,-0.28901 0.586591,-0.44461 1.007907,-0.70128 0.211328,-0.12875 0.400434,-0.28573 0.420236,-0.34886 0.03805,-0.12128 0.21262,-0.16129 0.21262,-0.0487 0,0.0363 0.02774,0.0487 0.06164,0.0275 0.0339,-0.0212 0.06164,-0.0896 0.06164,-0.15196 0,-0.17087 0.141955,-0.25678 0.454669,-0.27516 0.154981,-0.009 0.301007,-0.036 0.324503,-0.0598 0.0235,-0.0238 0.101895,-0.0432 0.174222,-0.0432 0.07233,0 0.162891,-0.0318 0.201255,-0.0706 0.09535,-0.0965 0.971013,-0.0899 1.356912,0.0102 0.271873,0.0705 0.338646,0.0676 0.527281,-0.023 0.118793,-0.057 0.261229,-0.1037 0.316525,-0.1037 0.0553,0 0.198598,-0.0415 0.318451,-0.0921 0.119852,-0.0507 0.375545,-0.1042 0.568207,-0.11896 0.750617,-0.0575 1.226864,-0.11944 1.547726,-0.20136 0.183945,-0.047 0.345136,-0.0746 0.358202,-0.0614 0.07546,0.0763 0.132275,0.91289 0.102073,1.50289 -0.063,1.23058 -0.494428,3.1616 -0.759597,3.39982 -0.09034,0.0812 -0.455906,0.0931 -2.628166,0.0857 -1.387778,-0.005 -2.565236,0.0135 -2.616571,0.0404 -0.05471,0.0287 -0.141146,0.0136 -0.208852,-0.0365 z m -3.113032,-0.37815 c 0.0715,-0.0872 0.06697,-0.0977 -0.03358,-0.078 -0.06392,0.0125 -0.127758,0.0579 -0.141869,0.10075 -0.03661,0.11126 0.07767,0.0964 0.175445,-0.0228 z m 0.67216,-0.0552 c 0.06411,-0.0782 0.05521,-0.0936 -0.05409,-0.0936 -0.0752,0 -0.130831,0.0398 -0.130831,0.0936 0,0.0515 0.02434,0.0936 0.0541,0.0936 0.02975,0 0.08863,-0.0421 0.130831,-0.0936 z m 1.836927,0.0187 c 0.118495,-0.1199 0.08701,-0.15497 -0.112507,-0.12534 -0.150504,0.0224 -0.172831,0.0443 -0.115737,0.11394 0.08674,0.10574 0.132727,0.10804 0.228244,0.0114 z m -3.300921,-0.12325 c 0.05933,-0.0307 0.107873,-0.0978 0.107873,-0.14909 0,-0.12277 -0.174278,-0.18749 -0.263039,-0.0977 -0.03841,0.0388 -0.116523,0.0707 -0.173596,0.0707 -0.06112,0 -0.115613,0.0627 -0.132583,0.1525 -0.02661,0.14084 -0.01419,0.14971 0.162329,0.11595 0.105129,-0.0201 0.239685,-0.0616 0.299016,-0.0923 z m 2.371927,0.098 c -0.02048,-0.0207 -0.07365,-0.0229 -0.118147,-0.005 -0.04917,0.0199 -0.03457,0.0347 0.03724,0.0377 0.06498,0.003 0.101388,-0.012 0.08091,-0.0328 z m -1.770919,-0.24666 c 0,-0.10291 -0.09742,-0.1203 -0.154105,-0.0275 -0.05027,0.0823 0.02344,0.19908 0.09672,0.15326 0.03156,-0.0197 0.05738,-0.0763 0.05738,-0.12576 z m 0.169544,-0.32376 c 0.01489,-0.0452 -0.02671,-0.078 -0.09913,-0.078 -0.134805,0 -0.215937,0.0815 -0.148799,0.14938 0.06202,0.0628 0.218618,0.0177 0.247927,-0.0714 z m 0.508516,0.0468 c 0.07477,-0.0489 0.06592,-0.0606 -0.04623,-0.0614 -0.07628,-5.3e-4 -0.138694,0.0271 -0.138694,0.0614 0,0.0781 0.06542,0.0781 0.184925,0 z m 3.267018,-0.62369 c 0,-0.0343 -0.02774,-0.0624 -0.06164,-0.0624 -0.0339,0 -0.06164,0.0281 -0.06164,0.0624 0,0.0343 0.02774,0.0624 0.06164,0.0624 0.0339,0 0.06164,-0.0281 0.06164,-0.0624 z m -2.007934,-0.4782 c 0.04643,-0.12242 -0.0479,-0.24023 -0.14416,-0.18003 -0.09715,0.0607 -0.08232,0.28402 0.01886,0.28402 0.04723,0 0.103615,-0.0468 0.125305,-0.10399 z m -9.0105466,1.95339 c -0.2190413,-0.0727 -0.242197,-0.11502 -0.1193861,-0.21814 0.1011943,-0.085 0.5354686,-0.0204 0.5354686,0.0796 0,0.079 -0.1267665,0.22808 -0.1818435,0.21384 -0.018647,-0.005 -0.1240542,-0.0387 -0.234239,-0.0753 z m 2.7584726,0.0217 c 0,-0.0343 0.04325,-0.0624 0.0961,-0.0624 0.05285,0 0.07896,0.0281 0.058,0.0624 -0.02095,0.0343 -0.0642,0.0624 -0.0961,0.0624 -0.0319,0 -0.058,-0.0281 -0.058,-0.0624 z m -0.9591043,-0.13073 c -0.05965,-0.0976 0.12938,-0.26785 0.2468398,-0.22225 0.082781,0.0321 0.08612,0.0586 0.020773,0.16445 -0.085606,0.1387 -0.202745,0.164 -0.2676128,0.0578 z m -1.2387307,-0.0903 c -0.020076,-0.0529 -0.020402,-0.11253 -7.274e-4,-0.13244 0.0622,-0.0629 0.2260203,0.0336 0.2260203,0.13318 0,0.12449 -0.1780229,0.12391 -0.225296,-7.4e-4 z m 1.932698,-0.21834 c -0.0537,-0.20776 0.01333,-0.31887 0.164563,-0.27277 0.205807,0.0627 0.260631,0.14013 0.185356,0.26164 -0.101689,0.16415 -0.308669,0.17073 -0.349919,0.0111 z m -1.2990247,0.0154 c -0.05664,-0.0927 0.070131,-0.21875 0.1779416,-0.17689 0.085874,0.0333 0.091389,0.0584 0.029494,0.13383 -0.084356,0.10284 -0.1611787,0.11879 -0.207436,0.0431 z m 2.5162907,-0.0804 c -0.07071,-0.11576 0.07719,-0.21256 0.185633,-0.1215 0.05229,0.0439 0.09507,0.10447 0.09507,0.13457 0,0.0785 -0.231368,0.0677 -0.280708,-0.0131 z m 0.897127,-0.1193 c 0,-0.0343 0.04161,-0.0624 0.09246,-0.0624 0.05086,0 0.09246,0.0281 0.09246,0.0624 0,0.0343 -0.04161,0.0624 -0.09246,0.0624 -0.05085,0 -0.09246,-0.0281 -0.09246,-0.0624 z m -1.356121,-0.11282 c 0,-0.14152 0.188602,-0.26658 0.487701,-0.32338 0.542671,-0.10306 0.508504,0.0403 -0.05969,0.25038 -0.370167,0.1369 -0.428007,0.14676 -0.428007,0.073 z m -1.2636578,-0.0743 c -0.059782,-0.0979 0.014429,-0.17196 0.2515558,-0.25114 0.283369,-0.0946 0.324355,-0.0452 0.127635,0.15381 -0.164132,0.16606 -0.3137475,0.20447 -0.3791908,0.0973 z m 0.8116178,-0.10395 c -0.07815,-0.0791 -0.04062,-0.14553 0.08219,-0.14553 0.06849,0 0.123283,0.0416 0.123283,0.0936 0,0.0949 -0.130397,0.12793 -0.205472,0.052 z m 1.656689,-0.14122 c -0.06176,-0.10111 0.07245,-0.13183 0.152035,-0.0348 0.06194,0.0755 0.05816,0.0929 -0.0202,0.0929 -0.053,0 -0.112331,-0.0261 -0.131836,-0.0581 z m -0.125917,-0.31615 c 0.02095,-0.0343 0.05033,-0.0624 0.06528,-0.0624 0.01495,0 0.02718,0.0281 0.02718,0.0624 0,0.0343 -0.02938,0.0624 -0.06528,0.0624 -0.0359,0 -0.04814,-0.0281 -0.02718,-0.0624 z m -0.277388,-0.066 c 0,-0.0363 0.02774,-0.0487 0.06164,-0.0275 0.0339,0.0212 0.06164,0.0509 0.06164,0.0661 0,0.0151 -0.02774,0.0275 -0.06164,0.0275 -0.0339,0 -0.06164,-0.0297 -0.06164,-0.066 z"
         id="path1690"
         inkscape:connector-curvature="0" />
    </g>
  </g>
</svg>
